<?xml version="1.0" encoding="UTF-8"?>
<!-- Created with Inkscape (http://www.inkscape.org/) -->
<svg width="210mm" height="222mm" version="1.1" viewBox="0 0 210 222" xmlns="http://www.w3.org/2000/svg"><defs><filter id="filter32801" x="0" y="0" width="1.0378" height="1.0209" color-interpolation-filters="sRGB"><feFlood flood-color="rgb(51,0,92)" result="flood"/><feComposite in="flood" in2="SourceGraphic" operator="in" result="composite1"/><feGaussianBlur in="composite1" result="blur"/><feOffset dx="0.5" dy="0.5" result="offset"/><feComposite in="SourceGraphic" in2="offset" result="composite2"/></filter></defs><path d="m155.96 215.31c6.9339-3.6958 12.501-9.3081 11.988-13.588-1.3567-11.333-41.28-21.622-67.672-24.848-32.109-3.9249-77.119-6.4061-68.989-11.334 8.1308-4.9278 29.496-7.6511 24.29-9.5617-9.4254-3.4598-58.616-4.7083-58.616-4.7083l-0.17422-1.9164s35.945-0.19329 48.352 0.61448c8.4111 0.54761 27.947 2.1113 27.048 5.9628-1.0486 4.4918-20.361 8.3349-20.739 9.5669-0.38953 1.2684 26.966 2.0211 34.639 2.6804 11.471 0.98555 39.423 2.8989 58.538 6.7246 20.119 4.0268 56.423 12.812 58.64 25.132 2.2175 12.319-24.692 22.175-24.692 22.175l-40.245 0.69689s10.697-3.9004 17.631-7.5962z" fill="#e2c8e9"/><g transform="matrix(.28244 0 0 .28244 -20.317 114.59)"><path d="m143.23 280.26 2.628 1.6514 4.2453 0.10106 2.527-2.0216-3.0324-16.981-4.4474-0.20215z" fill="#0d88b6"/><path d="m143.23 280.26 1.9205-17.452 1.7702 2.7104-1.0627 16.393z" fill="#fff" fill-opacity=".19216"/><path d="m150.1 282.01-1.3632-16.09 0.85782-2.9126 3.0324 16.981z" fill-opacity=".094118"/><path transform="matrix(1 0 0 .5 -.4535 133.34)" d="m161.32 256.12-6.6206 11.467h-13.241l-6.6206-11.467 6.6206-11.467h13.241z" fill="#0d88b6"/><g fill="#fff"><path d="m141.01 267.13 6.6206-8.9773 6.6206 8.9773z" fill-opacity=".094118"/><path d="m147.63 258.15-13.241 3.2437 6.6206 5.7336z" fill-opacity=".19111"/><path d="m147.63 258.15-6.6206-2.49-6.6206 5.7336z" fill-opacity=".093333"/></g><path d="m147.63 258.15 6.6206-2.49 6.6206 5.7336z" fill-opacity=".094118"/></g><g transform="matrix(.32061 0 0 .32061 82.107 111)"><path d="m143.23 280.26 2.628 1.6514 4.2453 0.10106 2.527-2.0216-3.0324-16.981-4.4474-0.20215z" fill="#0d88b6"/><path d="m143.23 280.26 1.9205-17.452 1.7702 2.7104-1.0627 16.393z" fill="#fff" fill-opacity=".19216"/><path d="m150.1 282.01-1.3632-16.09 0.85782-2.9126 3.0324 16.981z" fill-opacity=".094118"/><path transform="matrix(1 0 0 .5 -.4535 133.34)" d="m161.32 256.12-6.6206 11.467h-13.241l-6.6206-11.467 6.6206-11.467h13.241z" fill="#0d88b6"/><g fill="#fff"><path d="m141.01 267.13 6.6206-8.9773 6.6206 8.9773z" fill-opacity=".094118"/><path d="m147.63 258.15-13.241 3.2437 6.6206 5.7336z" fill-opacity=".19111"/><path d="m147.63 258.15-6.6206-2.49-6.6206 5.7336z" fill-opacity=".093333"/></g><path d="m147.63 258.15 6.6206-2.49 6.6206 5.7336z" fill-opacity=".094118"/></g><g fill="#5a009e"><g transform="translate(-24.63 6.5642)"><path transform="matrix(.92138 0 0 -.92138 14.053 161.26)" d="m139.23 87.051h-6.512l3.256-5.6395z"/><path transform="matrix(.92138 0 0 .92138 14.053 .13956)" d="m139.23 87.051h-6.512l3.256-5.6395z"/><path transform="matrix(.92138 0 0 .92138 21.271 .13956)" d="m139.23 87.051h-6.512l3.256-5.6395z"/><path transform="matrix(.92138 0 0 -.92138 17.662 155.01)" d="m139.23 87.051h-6.512l3.256-5.6395z"/><path transform="matrix(.92138 0 0 .92138 24.88 -6.1112)" d="m139.23 87.051h-6.512l3.256-5.6395z"/><path transform="matrix(.92138 0 0 .92138 32.097 -6.1112)" d="m139.23 87.051h-6.512l3.256-5.6395z"/><path transform="matrix(.92138 0 0 -.92138 28.488 148.76)" d="m139.23 87.051h-6.512l3.256-5.6395z"/><path transform="matrix(.92138 0 0 -.92138 24.88 155.01)" d="m139.23 87.051h-6.512l3.256-5.6395z"/><path transform="matrix(.92138 0 0 .92138 39.315 -6.1112)" d="m139.23 87.051h-6.512l3.256-5.6395z"/><path transform="matrix(.92138 0 0 -.92138 35.706 148.76)" d="m139.23 87.051h-6.512l3.256-5.6395z"/><path transform="matrix(.92138 0 0 .92138 28.489 -12.362)" d="m139.23 87.051h-6.512l3.256-5.6395z"/><path transform="matrix(.92138 0 0 -.92138 24.88 142.51)" d="m139.23 87.051h-6.512l3.256-5.6395z"/><path transform="matrix(.92138 0 0 .92138 35.706 -12.362)" d="m139.23 87.051h-6.512l3.256-5.6395z"/><path transform="matrix(.92138 0 0 -.92138 32.097 142.51)" d="m139.23 87.051h-6.512l3.256-5.6395z"/><path transform="matrix(.92138 0 0 .92138 14.053 -12.362)" d="m139.23 87.051h-6.512l3.256-5.6395z"/><path transform="matrix(.92138 0 0 -.92138 14.053 148.76)" d="m139.23 87.051h-6.512l3.256-5.6395z"/><path transform="matrix(.92138 0 0 .92138 21.271 -12.362)" d="m139.23 87.051h-6.512l3.256-5.6395z"/><path transform="matrix(.92138 0 0 -.92138 17.662 142.51)" d="m139.23 87.051h-6.512l3.256-5.6395z"/><path transform="matrix(.92138 0 0 -.92138 21.271 148.76)" d="m139.23 87.051h-6.512l3.256-5.6395z"/><path transform="matrix(.92138 0 0 .92138 17.662 -6.1112)" d="m139.23 87.051h-6.512l3.256-5.6395z"/><path transform="matrix(.92138 0 0 -.92138 42.924 148.76)" d="m139.23 87.051h-6.512l3.256-5.6395z"/><path transform="matrix(.92138 0 0 .92138 42.924 -12.362)" d="m139.23 87.051h-6.512l3.256-5.6395z"/><path transform="matrix(.92138 0 0 -.92138 46.533 142.51)" d="m139.23 87.051h-6.512l3.256-5.6395z"/><path transform="matrix(.92138 0 0 .92138 53.751 -18.613)" d="m139.23 87.051h-6.512l3.256-5.6395z"/><path transform="matrix(.92138 0 0 -.92138 57.359 136.26)" d="m139.23 87.051h-6.512l3.256-5.6395z"/><path transform="matrix(.92138 0 0 -.92138 42.924 136.26)" d="m139.23 87.051h-6.512l3.256-5.6395z"/><path transform="matrix(.92138 0 0 -.92138 50.142 136.26)" d="m139.23 87.051h-6.512l3.256-5.6395z"/><path transform="matrix(.92138 0 0 .92138 46.533 -18.613)" d="m139.23 87.051h-6.512l3.256-5.6395z"/><path transform="matrix(.92138 0 0 .92138 39.315 -18.613)" d="m139.23 87.051h-6.512l3.256-5.6395z"/><path transform="matrix(.92138 0 0 -.92138 39.315 142.51)" d="m139.23 87.051h-6.512l3.256-5.6395z"/><path transform="matrix(.92138 0 0 .92138 24.88 -18.613)" d="m139.23 87.051h-6.512l3.256-5.6395z"/><path transform="matrix(.92138 0 0 .92138 32.097 -18.613)" d="m139.23 87.051h-6.512l3.256-5.6395z"/><path transform="matrix(.92138 0 0 -.92138 28.489 136.26)" d="m139.23 87.051h-6.512l3.256-5.6395z"/><path transform="matrix(.92138 0 0 -.92138 35.706 136.26)" d="m139.23 87.051h-6.512l3.256-5.6395z"/><path transform="matrix(.92138 0 0 .92138 28.489 -24.863)" d="m139.23 87.051h-6.512l3.256-5.6395z"/><path transform="matrix(.92138 0 0 -.92138 24.88 130)" d="m139.23 87.051h-6.512l3.256-5.6395z"/><path transform="matrix(.92138 0 0 .92138 35.706 -24.863)" d="m139.23 87.051h-6.512l3.256-5.6395z"/><path transform="matrix(.92138 0 0 -.92138 32.097 130)" d="m139.23 87.051h-6.512l3.256-5.6395z"/><path transform="matrix(.92138 0 0 -.92138 14.053 136.26)" d="m139.23 87.051h-6.512l3.256-5.6395z"/><path transform="matrix(.92138 0 0 .92138 21.271 -24.863)" d="m139.23 87.051h-6.512l3.256-5.6395z"/><path transform="matrix(.92138 0 0 -.92138 21.271 136.26)" d="m139.23 87.051h-6.512l3.256-5.6395z"/><path transform="matrix(.92138 0 0 .92138 17.662 -18.613)" d="m139.23 87.051h-6.512l3.256-5.6395z"/><path transform="matrix(.92138 0 0 -.92138 39.315 130)" d="m139.23 87.051h-6.512l3.256-5.6395z"/></g><g transform="translate(-17.412 19.066)"><path transform="matrix(.92138 0 0 .92138 17.662 6.3903)" d="m139.23 87.051h-6.512l3.256-5.6395z"/><path transform="matrix(.92138 0 0 -.92138 14.053 161.26)" d="m139.23 87.051h-6.512l3.256-5.6395z"/><path transform="matrix(.92138 0 0 -.92138 17.662 167.51)" d="m139.23 87.051h-6.512l3.256-5.6395z"/><path transform="matrix(.92138 0 0 .92138 14.053 12.641)" d="m139.23 87.051h-6.512l3.256-5.6395z"/><path transform="matrix(.92138 0 0 -.92138 21.271 161.26)" d="m139.23 87.051h-6.512l3.256-5.6395z"/><path transform="matrix(.92138 0 0 .92138 21.271 12.641)" d="m139.23 87.051h-6.512l3.256-5.6395z"/><path transform="matrix(.92138 0 0 .92138 24.88 18.892)" d="m139.23 87.051h-6.512l3.256-5.6395z"/><path transform="matrix(.92138 0 0 -.92138 21.271 173.76)" d="m139.23 87.051h-6.512l3.256-5.6395z"/><path transform="matrix(.92138 0 0 -.92138 24.88 180.01)" d="m139.23 87.051h-6.512l3.256-5.6395z"/><path transform="matrix(.92138 0 0 .92138 21.271 25.142)" d="m139.23 87.051h-6.512l3.256-5.6395z"/><path transform="matrix(.92138 0 0 -.92138 21.271 186.26)" d="m139.23 87.051h-6.512l3.256-5.6395z"/><path transform="matrix(.92138 0 0 -.92138 14.053 173.76)" d="m139.23 87.051h-6.512l3.256-5.6395z"/><path transform="matrix(.92138 0 0 .92138 14.053 .13956)" d="m139.23 87.051h-6.512l3.256-5.6395z"/><path transform="matrix(.92138 0 0 .92138 21.271 .13956)" d="m139.23 87.051h-6.512l3.256-5.6395z"/><path transform="matrix(.92138 0 0 -.92138 17.662 155.01)" d="m139.23 87.051h-6.512l3.256-5.6395z"/><path transform="matrix(.92138 0 0 .92138 24.88 -6.1112)" d="m139.23 87.051h-6.512l3.256-5.6395z"/><path transform="matrix(.92138 0 0 -.92138 28.488 148.76)" d="m139.23 87.051h-6.512l3.256-5.6395z"/><path transform="matrix(.92138 0 0 -.92138 24.88 155.01)" d="m139.23 87.051h-6.512l3.256-5.6395z"/><path transform="matrix(.92138 0 0 .92138 28.489 -12.362)" d="m139.23 87.051h-6.512l3.256-5.6395z"/><path transform="matrix(.92138 0 0 -.92138 24.88 142.51)" d="m139.23 87.051h-6.512l3.256-5.6395z"/><path transform="matrix(.92138 0 0 -.92138 32.097 142.51)" d="m139.23 87.051h-6.512l3.256-5.6395z"/><path transform="matrix(.92138 0 0 -.92138 39.315 167.51)" d="m139.23 87.051h-6.512l3.256-5.6395z"/><path transform="matrix(.92138 0 0 .92138 39.315 6.3903)" d="m139.23 87.051h-6.512l3.256-5.6395z"/><path transform="matrix(.92138 0 0 -.92138 14.053 148.76)" d="m139.23 87.051h-6.512l3.256-5.6395z"/><path transform="matrix(.92138 0 0 .92138 21.271 -12.362)" d="m139.23 87.051h-6.512l3.256-5.6395z"/><path transform="matrix(.92138 0 0 -.92138 21.271 148.76)" d="m139.23 87.051h-6.512l3.256-5.6395z"/><path transform="matrix(.92138 0 0 .92138 17.662 -6.1112)" d="m139.23 87.051h-6.512l3.256-5.6395z"/><path transform="matrix(.92138 0 0 .92138 46.533 -6.1111)" d="m139.23 87.051h-6.512l3.256-5.6395z"/><path transform="matrix(.92138 0 0 -.92138 46.533 155.01)" d="m139.23 87.051h-6.512l3.256-5.6395z"/><path transform="matrix(.92138 0 0 .92138 53.751 -6.1111)" d="m139.23 87.051h-6.512l3.256-5.6395z"/><path transform="matrix(.92138 0 0 -.92138 50.142 148.76)" d="m139.23 87.051h-6.512l3.256-5.6395z"/><path transform="matrix(.92138 0 0 -.92138 53.751 155.01)" d="m139.23 87.051h-6.512l3.256-5.6395z"/><path transform="matrix(.92138 0 0 .92138 50.142 .13959)" d="m139.23 87.051h-6.512l3.256-5.6395z"/><path transform="matrix(.92138 0 0 .92138 53.75 6.3903)" d="m139.23 87.051h-6.512l3.256-5.6395z"/><path transform="matrix(.92138 0 0 -.92138 50.142 161.26)" d="m139.23 87.051h-6.512l3.256-5.6395z"/><path transform="matrix(.92138 0 0 -.92138 42.924 161.26)" d="m139.23 87.051h-6.512l3.256-5.6395z"/><path transform="matrix(.92138 0 0 .92138 50.142 -12.362)" d="m139.23 87.051h-6.512l3.256-5.6395z"/><path transform="matrix(.92138 0 0 -.92138 46.533 142.51)" d="m139.23 87.051h-6.512l3.256-5.6395z"/><path transform="matrix(.92138 0 0 .92138 53.751 -18.613)" d="m139.23 87.051h-6.512l3.256-5.6395z"/><path transform="matrix(.92138 0 0 -.92138 53.751 142.51)" d="m139.23 87.051h-6.512l3.256-5.6395z"/><path transform="matrix(.92138 0 0 .92138 57.359 .13957)" d="m139.23 87.051h-6.512l3.256-5.6395z"/><path transform="matrix(.92138 0 0 -.92138 57.359 148.76)" d="m139.23 87.051h-6.512l3.256-5.6395z"/><path transform="matrix(.92138 0 0 -.92138 50.142 136.26)" d="m139.23 87.051h-6.512l3.256-5.6395z"/><path transform="matrix(.92138 0 0 .92138 46.533 -18.613)" d="m139.23 87.051h-6.512l3.256-5.6395z"/><path transform="matrix(.92138 0 0 .92138 39.315 -18.613)" d="m139.23 87.051h-6.512l3.256-5.6395z"/></g><g transform="translate(-84.896 -23.642)"><path transform="matrix(.92138 0 0 .92138 10.444 6.3903)" d="m139.23 87.051h-6.512l3.256-5.6395z"/><path transform="matrix(.92138 0 0 .92138 17.662 6.3903)" d="m139.23 87.051h-6.512l3.256-5.6395z"/><path transform="matrix(.92138 0 0 -.92138 14.053 161.26)" d="m139.23 87.051h-6.512l3.256-5.6395z"/><path transform="matrix(.92138 0 0 -.92138 10.444 167.51)" d="m139.23 87.051h-6.512l3.256-5.6395z"/><path transform="matrix(.92138 0 0 -.92138 17.662 167.51)" d="m139.23 87.051h-6.512l3.256-5.6395z"/><path transform="matrix(.92138 0 0 .92138 14.053 12.641)" d="m139.23 87.051h-6.512l3.256-5.6395z"/><path transform="matrix(.92138 0 0 .92138 24.88 6.3903)" d="m139.23 87.051h-6.512l3.256-5.6395z"/><path transform="matrix(.92138 0 0 -.92138 21.271 161.26)" d="m139.23 87.051h-6.512l3.256-5.6395z"/><path transform="matrix(.92138 0 0 -.92138 24.88 167.51)" d="m139.23 87.051h-6.512l3.256-5.6395z"/><path transform="matrix(.92138 0 0 .92138 21.271 12.641)" d="m139.23 87.051h-6.512l3.256-5.6395z"/><path transform="matrix(.92138 0 0 .92138 24.88 18.892)" d="m139.23 87.051h-6.512l3.256-5.6395z"/><path transform="matrix(.92138 0 0 -.92138 21.271 173.76)" d="m139.23 87.051h-6.512l3.256-5.6395z"/><path transform="matrix(.92138 0 0 .92138 6.8353 .13955)" d="m139.23 87.051h-6.512l3.256-5.6395z"/><path transform="matrix(.92138 0 0 .92138 14.053 .13956)" d="m139.23 87.051h-6.512l3.256-5.6395z"/><path transform="matrix(.92138 0 0 -.92138 10.444 155.01)" d="m139.23 87.051h-6.512l3.256-5.6395z"/><path transform="matrix(.92138 0 0 .92138 21.271 .13956)" d="m139.23 87.051h-6.512l3.256-5.6395z"/><path transform="matrix(.92138 0 0 -.92138 17.662 155.01)" d="m139.23 87.051h-6.512l3.256-5.6395z"/><path transform="matrix(.92138 0 0 .92138 24.88 -6.1112)" d="m139.23 87.051h-6.512l3.256-5.6395z"/><path transform="matrix(.92138 0 0 .92138 32.097 -6.1112)" d="m139.23 87.051h-6.512l3.256-5.6395z"/><path transform="matrix(.92138 0 0 -.92138 28.488 148.76)" d="m139.23 87.051h-6.512l3.256-5.6395z"/><path transform="matrix(.92138 0 0 -.92138 24.88 155.01)" d="m139.23 87.051h-6.512l3.256-5.6395z"/><path transform="matrix(.92138 0 0 -.92138 32.097 155.01)" d="m139.23 87.051h-6.512l3.256-5.6395z"/><path transform="matrix(.92138 0 0 .92138 28.488 .13956)" d="m139.23 87.051h-6.512l3.256-5.6395z"/><path transform="matrix(.92138 0 0 .92138 39.315 -6.1112)" d="m139.23 87.051h-6.512l3.256-5.6395z"/><path transform="matrix(.92138 0 0 -.92138 35.706 148.76)" d="m139.23 87.051h-6.512l3.256-5.6395z"/><path transform="matrix(.92138 0 0 -.92138 39.315 155.01)" d="m139.23 87.051h-6.512l3.256-5.6395z"/><path transform="matrix(.92138 0 0 .92138 35.706 .13957)" d="m139.23 87.051h-6.512l3.256-5.6395z"/><path transform="matrix(.92138 0 0 .92138 28.489 -12.362)" d="m139.23 87.051h-6.512l3.256-5.6395z"/><path transform="matrix(.92138 0 0 -.92138 24.88 142.51)" d="m139.23 87.051h-6.512l3.256-5.6395z"/><path transform="matrix(.92138 0 0 .92138 35.706 -12.362)" d="m139.23 87.051h-6.512l3.256-5.6395z"/><path transform="matrix(.92138 0 0 -.92138 32.097 142.51)" d="m139.23 87.051h-6.512l3.256-5.6395z"/><path transform="matrix(.92138 0 0 .92138 42.924 12.641)" d="m139.23 87.051h-6.512l3.256-5.6395z"/><path transform="matrix(.92138 0 0 -.92138 39.315 167.51)" d="m139.23 87.051h-6.512l3.256-5.6395z"/><path transform="matrix(.92138 0 0 -.92138 28.488 161.26)" d="m139.23 87.051h-6.512l3.256-5.6395z"/><path transform="matrix(.92138 0 0 .92138 39.315 6.3903)" d="m139.23 87.051h-6.512l3.256-5.6395z"/><path transform="matrix(.92138 0 0 -.92138 35.706 161.26)" d="m139.23 87.051h-6.512l3.256-5.6395z"/><path transform="matrix(.92138 0 0 .92138 3.2265 -6.1112)" d="m139.23 87.051h-6.512l3.256-5.6395z"/><path transform="matrix(.92138 0 0 .92138 6.8353 -12.362)" d="m139.23 87.051h-6.512l3.256-5.6395z"/><path transform="matrix(.92138 0 0 .92138 14.053 -12.362)" d="m139.23 87.051h-6.512l3.256-5.6395z"/><path transform="matrix(.92138 0 0 -.92138 10.444 142.51)" d="m139.23 87.051h-6.512l3.256-5.6395z"/><path transform="matrix(.92138 0 0 -.92138 6.8353 148.76)" d="m139.23 87.051h-6.512l3.256-5.6395z"/><path transform="matrix(.92138 0 0 -.92138 14.053 148.76)" d="m139.23 87.051h-6.512l3.256-5.6395z"/><path transform="matrix(.92138 0 0 .92138 10.444 -6.1112)" d="m139.23 87.051h-6.512l3.256-5.6395z"/><path transform="matrix(.92138 0 0 .92138 21.271 -12.362)" d="m139.23 87.051h-6.512l3.256-5.6395z"/><path transform="matrix(.92138 0 0 -.92138 17.662 142.51)" d="m139.23 87.051h-6.512l3.256-5.6395z"/><path transform="matrix(.92138 0 0 -.92138 21.271 148.76)" d="m139.23 87.051h-6.512l3.256-5.6395z"/><path transform="matrix(.92138 0 0 .92138 17.662 -6.1112)" d="m139.23 87.051h-6.512l3.256-5.6395z"/><path transform="matrix(.92138 0 0 .92138 46.533 -6.1111)" d="m139.23 87.051h-6.512l3.256-5.6395z"/><path transform="matrix(.92138 0 0 -.92138 42.924 148.76)" d="m139.23 87.051h-6.512l3.256-5.6395z"/><path transform="matrix(.92138 0 0 -.92138 46.533 155.01)" d="m139.23 87.051h-6.512l3.256-5.6395z"/><path transform="matrix(.92138 0 0 .92138 42.924 .13958)" d="m139.23 87.051h-6.512l3.256-5.6395z"/><path transform="matrix(.92138 0 0 .92138 53.751 -6.1111)" d="m139.23 87.051h-6.512l3.256-5.6395z"/><path transform="matrix(.92138 0 0 -.92138 50.142 148.76)" d="m139.23 87.051h-6.512l3.256-5.6395z"/><path transform="matrix(.92138 0 0 -.92138 53.751 155.01)" d="m139.23 87.051h-6.512l3.256-5.6395z"/><path transform="matrix(.92138 0 0 .92138 50.142 .13959)" d="m139.23 87.051h-6.512l3.256-5.6395z"/><path transform="matrix(.92138 0 0 .92138 53.75 6.3903)" d="m139.23 87.051h-6.512l3.256-5.6395z"/><path transform="matrix(.92138 0 0 -.92138 50.142 161.26)" d="m139.23 87.051h-6.512l3.256-5.6395z"/><path transform="matrix(.92138 0 0 -.92138 53.75 167.51)" d="m139.23 87.051h-6.512l3.256-5.6395z"/><path transform="matrix(.92138 0 0 .92138 50.142 12.641)" d="m139.23 87.051h-6.512l3.256-5.6395z"/><path transform="matrix(.92138 0 0 -.92138 42.924 161.26)" d="m139.23 87.051h-6.512l3.256-5.6395z"/><path transform="matrix(.92138 0 0 .92138 42.924 -12.362)" d="m139.23 87.051h-6.512l3.256-5.6395z"/><path transform="matrix(.92138 0 0 .92138 50.142 -12.362)" d="m139.23 87.051h-6.512l3.256-5.6395z"/><path transform="matrix(.92138 0 0 -.92138 46.533 142.51)" d="m139.23 87.051h-6.512l3.256-5.6395z"/><path transform="matrix(.92138 0 0 .92138 53.751 -18.613)" d="m139.23 87.051h-6.512l3.256-5.6395z"/><path transform="matrix(.92138 0 0 -.92138 57.359 136.26)" d="m139.23 87.051h-6.512l3.256-5.6395z"/><path transform="matrix(.92138 0 0 -.92138 53.751 142.51)" d="m139.23 87.051h-6.512l3.256-5.6395z"/><path transform="matrix(.92138 0 0 .92138 57.359 -12.362)" d="m139.23 87.051h-6.512l3.256-5.6395z"/><path transform="matrix(.92138 0 0 .92138 57.359 -24.863)" d="m139.23 87.051h-6.512l3.256-5.6395z"/><path transform="matrix(.92138 0 0 -.92138 53.751 130)" d="m139.23 87.051h-6.512l3.256-5.6395z"/><path transform="matrix(.92138 0 0 -.92138 57.359 148.76)" d="m139.23 87.051h-6.512l3.256-5.6395z"/><path transform="matrix(.92138 0 0 .92138 42.924 -24.863)" d="m139.23 87.051h-6.512l3.256-5.6395z"/><path transform="matrix(.92138 0 0 -.92138 42.924 136.26)" d="m139.23 87.051h-6.512l3.256-5.6395z"/><path transform="matrix(.92138 0 0 .92138 50.142 -24.863)" d="m139.23 87.051h-6.512l3.256-5.6395z"/><path transform="matrix(.92138 0 0 -.92138 46.533 130)" d="m139.23 87.051h-6.512l3.256-5.6395z"/><path transform="matrix(.92138 0 0 -.92138 50.142 136.26)" d="m139.23 87.051h-6.512l3.256-5.6395z"/><path transform="matrix(.92138 0 0 .92138 46.533 -18.613)" d="m139.23 87.051h-6.512l3.256-5.6395z"/><path transform="matrix(.92138 0 0 .92138 46.533 6.3903)" d="m139.23 87.051h-6.512l3.256-5.6395z"/><path transform="matrix(.92138 0 0 -.92138 46.533 167.51)" d="m139.23 87.051h-6.512l3.256-5.6395z"/><path transform="matrix(.92138 0 0 .92138 39.315 -18.613)" d="m139.23 87.051h-6.512l3.256-5.6395z"/><path transform="matrix(.92138 0 0 -.92138 39.315 142.51)" d="m139.23 87.051h-6.512l3.256-5.6395z"/><path transform="matrix(.92138 0 0 .92138 24.88 -18.613)" d="m139.23 87.051h-6.512l3.256-5.6395z"/><path transform="matrix(.92138 0 0 .92138 32.097 -18.613)" d="m139.23 87.051h-6.512l3.256-5.6395z"/><path transform="matrix(.92138 0 0 -.92138 35.706 136.26)" d="m139.23 87.051h-6.512l3.256-5.6395z"/><path transform="matrix(.92138 0 0 .92138 35.706 -24.863)" d="m139.23 87.051h-6.512l3.256-5.6395z"/><path transform="matrix(.92138 0 0 .92138 3.2265 -18.613)" d="m139.23 87.051h-6.512l3.256-5.6395z"/><path transform="matrix(.92138 0 0 .92138 14.053 -24.863)" d="m139.23 87.051h-6.512l3.256-5.6395z"/><path transform="matrix(.92138 0 0 -.92138 6.8354 136.26)" d="m139.23 87.051h-6.512l3.256-5.6395z"/><path transform="matrix(.92138 0 0 -.92138 14.053 136.26)" d="m139.23 87.051h-6.512l3.256-5.6395z"/><path transform="matrix(.92138 0 0 .92138 10.444 -18.613)" d="m139.23 87.051h-6.512l3.256-5.6395z"/><path transform="matrix(.92138 0 0 -.92138 17.662 130)" d="m139.23 87.051h-6.512l3.256-5.6395z"/><path transform="matrix(.92138 0 0 -.92138 21.271 136.26)" d="m139.23 87.051h-6.512l3.256-5.6395z"/><path transform="matrix(.92138 0 0 .92138 17.662 -18.613)" d="m139.23 87.051h-6.512l3.256-5.6395z"/><path transform="matrix(.92138 0 0 -.92138 39.315 130)" d="m139.23 87.051h-6.512l3.256-5.6395z"/></g><g transform="translate(-84.896 13.862)"><path transform="matrix(.92138 0 0 .92138 10.444 6.3903)" d="m139.23 87.051h-6.512l3.256-5.6395z"/><path transform="matrix(.92138 0 0 .92138 17.662 6.3903)" d="m139.23 87.051h-6.512l3.256-5.6395z"/><path transform="matrix(.92138 0 0 -.92138 14.053 161.26)" d="m139.23 87.051h-6.512l3.256-5.6395z"/><path transform="matrix(.92138 0 0 -.92138 10.444 167.51)" d="m139.23 87.051h-6.512l3.256-5.6395z"/><path transform="matrix(.92138 0 0 -.92138 17.662 167.51)" d="m139.23 87.051h-6.512l3.256-5.6395z"/><path transform="matrix(.92138 0 0 .92138 14.053 12.641)" d="m139.23 87.051h-6.512l3.256-5.6395z"/><path transform="matrix(.92138 0 0 -.92138 21.271 161.26)" d="m139.23 87.051h-6.512l3.256-5.6395z"/><path transform="matrix(.92138 0 0 .92138 21.271 12.641)" d="m139.23 87.051h-6.512l3.256-5.6395z"/><path transform="matrix(.92138 0 0 -.92138 21.271 173.76)" d="m139.23 87.051h-6.512l3.256-5.6395z"/><path transform="matrix(.92138 0 0 -.92138 14.053 173.76)" d="m139.23 87.051h-6.512l3.256-5.6395z"/><path transform="matrix(.92138 0 0 .92138 14.053 .13956)" d="m139.23 87.051h-6.512l3.256-5.6395z"/><path transform="matrix(.92138 0 0 .92138 21.271 .13956)" d="m139.23 87.051h-6.512l3.256-5.6395z"/><path transform="matrix(.92138 0 0 -.92138 17.662 155.01)" d="m139.23 87.051h-6.512l3.256-5.6395z"/><path transform="matrix(.92138 0 0 .92138 24.88 -6.1112)" d="m139.23 87.051h-6.512l3.256-5.6395z"/><path transform="matrix(.92138 0 0 .92138 32.097 -6.1112)" d="m139.23 87.051h-6.512l3.256-5.6395z"/><path transform="matrix(.92138 0 0 -.92138 28.488 148.76)" d="m139.23 87.051h-6.512l3.256-5.6395z"/><path transform="matrix(.92138 0 0 -.92138 32.097 155.01)" d="m139.23 87.051h-6.512l3.256-5.6395z"/><path transform="matrix(.92138 0 0 .92138 39.315 -6.1112)" d="m139.23 87.051h-6.512l3.256-5.6395z"/><path transform="matrix(.92138 0 0 -.92138 39.315 155.01)" d="m139.23 87.051h-6.512l3.256-5.6395z"/><path transform="matrix(.92138 0 0 .92138 35.706 .13957)" d="m139.23 87.051h-6.512l3.256-5.6395z"/><path transform="matrix(.92138 0 0 .92138 28.489 -12.362)" d="m139.23 87.051h-6.512l3.256-5.6395z"/><path transform="matrix(.92138 0 0 -.92138 24.88 142.51)" d="m139.23 87.051h-6.512l3.256-5.6395z"/><path transform="matrix(.92138 0 0 .92138 35.706 12.641)" d="m139.23 87.051h-6.512l3.256-5.6395z"/><path transform="matrix(.92138 0 0 -.92138 39.315 167.51)" d="m139.23 87.051h-6.512l3.256-5.6395z"/><path transform="matrix(.92138 0 0 .92138 39.315 6.3903)" d="m139.23 87.051h-6.512l3.256-5.6395z"/><path transform="matrix(.92138 0 0 -.92138 35.706 161.26)" d="m139.23 87.051h-6.512l3.256-5.6395z"/><path transform="matrix(.92138 0 0 .92138 3.2265 -6.1112)" d="m139.23 87.051h-6.512l3.256-5.6395z"/><path transform="matrix(.92138 0 0 .92138 6.8353 -12.362)" d="m139.23 87.051h-6.512l3.256-5.6395z"/><path transform="matrix(.92138 0 0 .92138 14.053 -12.362)" d="m139.23 87.051h-6.512l3.256-5.6395z"/><path transform="matrix(.92138 0 0 -.92138 10.444 142.51)" d="m139.23 87.051h-6.512l3.256-5.6395z"/><path transform="matrix(.92138 0 0 -.92138 6.8353 148.76)" d="m139.23 87.051h-6.512l3.256-5.6395z"/><path transform="matrix(.92138 0 0 -.92138 14.053 148.76)" d="m139.23 87.051h-6.512l3.256-5.6395z"/><path transform="matrix(.92138 0 0 .92138 21.271 -12.362)" d="m139.23 87.051h-6.512l3.256-5.6395z"/><path transform="matrix(.92138 0 0 -.92138 17.662 142.51)" d="m139.23 87.051h-6.512l3.256-5.6395z"/><path transform="matrix(.92138 0 0 -.92138 21.271 148.76)" d="m139.23 87.051h-6.512l3.256-5.6395z"/><path transform="matrix(.92138 0 0 .92138 17.662 -6.1112)" d="m139.23 87.051h-6.512l3.256-5.6395z"/><path transform="matrix(.92138 0 0 .92138 3.2265 -18.613)" d="m139.23 87.051h-6.512l3.256-5.6395z"/><path transform="matrix(.92138 0 0 .92138 6.8354 -24.863)" d="m139.23 87.051h-6.512l3.256-5.6395z"/><path transform="matrix(.92138 0 0 -.92138 6.8354 136.26)" d="m139.23 87.051h-6.512l3.256-5.6395z"/><path transform="matrix(.92138 0 0 -.92138 14.053 136.26)" d="m139.23 87.051h-6.512l3.256-5.6395z"/><path transform="matrix(.92138 0 0 .92138 10.444 -18.613)" d="m139.23 87.051h-6.512l3.256-5.6395z"/><path transform="matrix(.92138 0 0 .92138 17.662 -18.613)" d="m139.23 87.051h-6.512l3.256-5.6395z"/></g><g transform="translate(-18.204 -31.965)"><path transform="matrix(.92138 0 0 .92138 10.444 6.3903)" d="m139.23 87.051h-6.512l3.256-5.6395z"/><path transform="matrix(.92138 0 0 .92138 17.662 6.3903)" d="m139.23 87.051h-6.512l3.256-5.6395z"/><path transform="matrix(.92138 0 0 -.92138 14.053 161.26)" d="m139.23 87.051h-6.512l3.256-5.6395z"/><path transform="matrix(.92138 0 0 -.92138 10.444 167.51)" d="m139.23 87.051h-6.512l3.256-5.6395z"/><path transform="matrix(.92138 0 0 -.92138 17.662 167.51)" d="m139.23 87.051h-6.512l3.256-5.6395z"/><path transform="matrix(.92138 0 0 .92138 14.053 12.641)" d="m139.23 87.051h-6.512l3.256-5.6395z"/><path transform="matrix(.92138 0 0 .92138 24.88 6.3903)" d="m139.23 87.051h-6.512l3.256-5.6395z"/><path transform="matrix(.92138 0 0 -.92138 21.271 161.26)" d="m139.23 87.051h-6.512l3.256-5.6395z"/><path transform="matrix(.92138 0 0 -.92138 24.88 167.51)" d="m139.23 87.051h-6.512l3.256-5.6395z"/><path transform="matrix(.92138 0 0 .92138 21.271 12.641)" d="m139.23 87.051h-6.512l3.256-5.6395z"/><path transform="matrix(.92138 0 0 -.92138 21.271 173.76)" d="m139.23 87.051h-6.512l3.256-5.6395z"/><path transform="matrix(.92138 0 0 -.92138 14.053 173.76)" d="m139.23 87.051h-6.512l3.256-5.6395z"/><path transform="matrix(.92138 0 0 .92138 6.8353 .13955)" d="m139.23 87.051h-6.512l3.256-5.6395z"/><path transform="matrix(.92138 0 0 .92138 14.053 .13956)" d="m139.23 87.051h-6.512l3.256-5.6395z"/><path transform="matrix(.92138 0 0 -.92138 10.444 155.01)" d="m139.23 87.051h-6.512l3.256-5.6395z"/><path transform="matrix(.92138 0 0 .92138 21.271 .13956)" d="m139.23 87.051h-6.512l3.256-5.6395z"/><path transform="matrix(.92138 0 0 -.92138 17.662 155.01)" d="m139.23 87.051h-6.512l3.256-5.6395z"/><path transform="matrix(.92138 0 0 .92138 24.88 -6.1112)" d="m139.23 87.051h-6.512l3.256-5.6395z"/><path transform="matrix(.92138 0 0 .92138 32.097 -6.1112)" d="m139.23 87.051h-6.512l3.256-5.6395z"/><path transform="matrix(.92138 0 0 -.92138 28.488 148.76)" d="m139.23 87.051h-6.512l3.256-5.6395z"/><path transform="matrix(.92138 0 0 -.92138 24.88 155.01)" d="m139.23 87.051h-6.512l3.256-5.6395z"/><path transform="matrix(.92138 0 0 -.92138 32.097 155.01)" d="m139.23 87.051h-6.512l3.256-5.6395z"/><path transform="matrix(.92138 0 0 .92138 28.488 .13956)" d="m139.23 87.051h-6.512l3.256-5.6395z"/><path transform="matrix(.92138 0 0 .92138 39.315 -6.1112)" d="m139.23 87.051h-6.512l3.256-5.6395z"/><path transform="matrix(.92138 0 0 -.92138 35.706 148.76)" d="m139.23 87.051h-6.512l3.256-5.6395z"/><path transform="matrix(.92138 0 0 -.92138 39.315 155.01)" d="m139.23 87.051h-6.512l3.256-5.6395z"/><path transform="matrix(.92138 0 0 .92138 35.706 .13957)" d="m139.23 87.051h-6.512l3.256-5.6395z"/><path transform="matrix(.92138 0 0 .92138 28.489 -12.362)" d="m139.23 87.051h-6.512l3.256-5.6395z"/><path transform="matrix(.92138 0 0 -.92138 24.88 142.51)" d="m139.23 87.051h-6.512l3.256-5.6395z"/><path transform="matrix(.92138 0 0 .92138 35.706 -12.362)" d="m139.23 87.051h-6.512l3.256-5.6395z"/><path transform="matrix(.92138 0 0 -.92138 32.097 142.51)" d="m139.23 87.051h-6.512l3.256-5.6395z"/><path transform="matrix(.92138 0 0 .92138 42.924 12.641)" d="m139.23 87.051h-6.512l3.256-5.6395z"/><path transform="matrix(.92138 0 0 -.92138 39.315 167.51)" d="m139.23 87.051h-6.512l3.256-5.6395z"/><path transform="matrix(.92138 0 0 .92138 32.097 6.3903)" d="m139.23 87.051h-6.512l3.256-5.6395z"/><path transform="matrix(.92138 0 0 -.92138 28.488 161.26)" d="m139.23 87.051h-6.512l3.256-5.6395z"/><path transform="matrix(.92138 0 0 .92138 39.315 6.3903)" d="m139.23 87.051h-6.512l3.256-5.6395z"/><path transform="matrix(.92138 0 0 -.92138 35.706 161.26)" d="m139.23 87.051h-6.512l3.256-5.6395z"/><path transform="matrix(.92138 0 0 .92138 6.8353 -12.362)" d="m139.23 87.051h-6.512l3.256-5.6395z"/><path transform="matrix(.92138 0 0 .92138 14.053 -12.362)" d="m139.23 87.051h-6.512l3.256-5.6395z"/><path transform="matrix(.92138 0 0 -.92138 10.444 142.51)" d="m139.23 87.051h-6.512l3.256-5.6395z"/><path transform="matrix(.92138 0 0 -.92138 6.8353 148.76)" d="m139.23 87.051h-6.512l3.256-5.6395z"/><path transform="matrix(.92138 0 0 -.92138 14.053 148.76)" d="m139.23 87.051h-6.512l3.256-5.6395z"/><path transform="matrix(.92138 0 0 .92138 10.444 -6.1112)" d="m139.23 87.051h-6.512l3.256-5.6395z"/><path transform="matrix(.92138 0 0 .92138 21.271 -12.362)" d="m139.23 87.051h-6.512l3.256-5.6395z"/><path transform="matrix(.92138 0 0 -.92138 17.662 142.51)" d="m139.23 87.051h-6.512l3.256-5.6395z"/><path transform="matrix(.92138 0 0 -.92138 21.271 148.76)" d="m139.23 87.051h-6.512l3.256-5.6395z"/><path transform="matrix(.92138 0 0 .92138 17.662 -6.1112)" d="m139.23 87.051h-6.512l3.256-5.6395z"/><path transform="matrix(.92138 0 0 .92138 46.533 -6.1111)" d="m139.23 87.051h-6.512l3.256-5.6395z"/><path transform="matrix(.92138 0 0 -.92138 42.924 148.76)" d="m139.23 87.051h-6.512l3.256-5.6395z"/><path transform="matrix(.92138 0 0 -.92138 46.533 155.01)" d="m139.23 87.051h-6.512l3.256-5.6395z"/><path transform="matrix(.92138 0 0 .92138 42.924 .13958)" d="m139.23 87.051h-6.512l3.256-5.6395z"/><path transform="matrix(.92138 0 0 .92138 53.751 -6.1111)" d="m139.23 87.051h-6.512l3.256-5.6395z"/><path transform="matrix(.92138 0 0 -.92138 50.142 148.76)" d="m139.23 87.051h-6.512l3.256-5.6395z"/><path transform="matrix(.92138 0 0 -.92138 53.751 155.01)" d="m139.23 87.051h-6.512l3.256-5.6395z"/><path transform="matrix(.92138 0 0 .92138 50.142 .13959)" d="m139.23 87.051h-6.512l3.256-5.6395z"/><path transform="matrix(.92138 0 0 .92138 53.75 6.3903)" d="m139.23 87.051h-6.512l3.256-5.6395z"/><path transform="matrix(.92138 0 0 -.92138 50.142 161.26)" d="m139.23 87.051h-6.512l3.256-5.6395z"/><path transform="matrix(.92138 0 0 -.92138 53.75 167.51)" d="m139.23 87.051h-6.512l3.256-5.6395z"/><path transform="matrix(.92138 0 0 .92138 50.142 12.641)" d="m139.23 87.051h-6.512l3.256-5.6395z"/><path transform="matrix(.92138 0 0 -.92138 42.924 161.26)" d="m139.23 87.051h-6.512l3.256-5.6395z"/><path transform="matrix(.92138 0 0 .92138 42.924 -12.362)" d="m139.23 87.051h-6.512l3.256-5.6395z"/><path transform="matrix(.92138 0 0 .92138 50.142 -12.362)" d="m139.23 87.051h-6.512l3.256-5.6395z"/><path transform="matrix(.92138 0 0 -.92138 46.533 142.51)" d="m139.23 87.051h-6.512l3.256-5.6395z"/><path transform="matrix(.92138 0 0 .92138 53.751 -18.613)" d="m139.23 87.051h-6.512l3.256-5.6395z"/><path transform="matrix(.92138 0 0 -.92138 57.359 136.26)" d="m139.23 87.051h-6.512l3.256-5.6395z"/><path transform="matrix(.92138 0 0 -.92138 53.751 142.51)" d="m139.23 87.051h-6.512l3.256-5.6395z"/><path transform="matrix(.92138 0 0 .92138 57.359 -12.362)" d="m139.23 87.051h-6.512l3.256-5.6395z"/><path transform="matrix(.92138 0 0 .92138 57.359 -24.863)" d="m139.23 87.051h-6.512l3.256-5.6395z"/><path transform="matrix(.92138 0 0 -.92138 53.751 130)" d="m139.23 87.051h-6.512l3.256-5.6395z"/><path transform="matrix(.92138 0 0 -.92138 57.359 148.76)" d="m139.23 87.051h-6.512l3.256-5.6395z"/><path transform="matrix(.92138 0 0 .92138 42.924 -24.863)" d="m139.23 87.051h-6.512l3.256-5.6395z"/><path transform="matrix(.92138 0 0 -.92138 42.924 136.26)" d="m139.23 87.051h-6.512l3.256-5.6395z"/><path transform="matrix(.92138 0 0 .92138 50.142 -24.863)" d="m139.23 87.051h-6.512l3.256-5.6395z"/><path transform="matrix(.92138 0 0 -.92138 46.533 130)" d="m139.23 87.051h-6.512l3.256-5.6395z"/><path transform="matrix(.92138 0 0 -.92138 50.142 136.26)" d="m139.23 87.051h-6.512l3.256-5.6395z"/><path transform="matrix(.92138 0 0 .92138 46.533 -18.613)" d="m139.23 87.051h-6.512l3.256-5.6395z"/><path transform="matrix(.92138 0 0 .92138 46.533 6.3903)" d="m139.23 87.051h-6.512l3.256-5.6395z"/><path transform="matrix(.92138 0 0 -.92138 46.533 167.51)" d="m139.23 87.051h-6.512l3.256-5.6395z"/><path transform="matrix(.92138 0 0 .92138 39.315 -18.613)" d="m139.23 87.051h-6.512l3.256-5.6395z"/><path transform="matrix(.92138 0 0 -.92138 39.315 142.51)" d="m139.23 87.051h-6.512l3.256-5.6395z"/><path transform="matrix(.92138 0 0 .92138 24.88 -18.613)" d="m139.23 87.051h-6.512l3.256-5.6395z"/><path transform="matrix(.92138 0 0 .92138 32.097 -18.613)" d="m139.23 87.051h-6.512l3.256-5.6395z"/><path transform="matrix(.92138 0 0 -.92138 28.489 136.26)" d="m139.23 87.051h-6.512l3.256-5.6395z"/><path transform="matrix(.92138 0 0 -.92138 35.706 136.26)" d="m139.23 87.051h-6.512l3.256-5.6395z"/><path transform="matrix(.92138 0 0 .92138 28.489 -24.863)" d="m139.23 87.051h-6.512l3.256-5.6395z"/><path transform="matrix(.92138 0 0 -.92138 24.88 130)" d="m139.23 87.051h-6.512l3.256-5.6395z"/><path transform="matrix(.92138 0 0 .92138 35.706 -24.863)" d="m139.23 87.051h-6.512l3.256-5.6395z"/><path transform="matrix(.92138 0 0 -.92138 32.097 130)" d="m139.23 87.051h-6.512l3.256-5.6395z"/><path transform="matrix(.92138 0 0 .92138 14.053 -24.863)" d="m139.23 87.051h-6.512l3.256-5.6395z"/><path transform="matrix(.92138 0 0 -.92138 14.053 136.26)" d="m139.23 87.051h-6.512l3.256-5.6395z"/><path transform="matrix(.92138 0 0 .92138 10.444 -18.613)" d="m139.23 87.051h-6.512l3.256-5.6395z"/><path transform="matrix(.92138 0 0 .92138 21.271 -24.863)" d="m139.23 87.051h-6.512l3.256-5.6395z"/><path transform="matrix(.92138 0 0 -.92138 17.662 130)" d="m139.23 87.051h-6.512l3.256-5.6395z"/><path transform="matrix(.92138 0 0 -.92138 21.271 136.26)" d="m139.23 87.051h-6.512l3.256-5.6395z"/><path transform="matrix(.92138 0 0 .92138 17.662 -18.613)" d="m139.23 87.051h-6.512l3.256-5.6395z"/><path transform="matrix(.92138 0 0 -.92138 39.315 130)" d="m139.23 87.051h-6.512l3.256-5.6395z"/></g></g><g transform="translate(8.7278 16.839)"><path d="m69.751 0.45431 26.847 14.554-6.3609 15.058-18.264 3.8465-0.39138 3.0979 16.165-1.9633-7.8269 20.279-17.779-11.654-26.078-26.956-1.7969 1.405 23.857 25.792-16.539-6.6584-25.667 2.3012 0.30202 3.2019 24.071-0.64465-7.9375 24.953 3.6874 3.1587 9.066-26.713 35.92 26.269 2.8761 57.181-8.3203 57.702 11.179 4.489 16.278 0.0605 12.452-3.0648-4.6195-63.543-5.2684-50.766 0.28784-21.138 22.77-5.3366 21.063 21.344 2.1348-3.9135-18.874-18.178 34.907 7.0156 0.96316-3.9135-42.328-12.317 20.597-5.3293-0.92001-2.9934-23.443 6.6662-20.427 5.2145 3.5579-22.059 22.059-7.8269 18.501 8.5385 3.2019-1.4232-17.078-9.9617 16.722-6.0482-1.0422-2.2319-21.418 6.8249-22.645 5.2034-33.51-12.524z" fill="#c300b2"/><path d="m103.04 189.21 7.8324-66.608 4.6196 63.543z" fill-opacity=".19104"/><path d="m94.589 125.24 16.284-2.6341-7.8324 66.608z" fill-opacity=".1403"/><g fill="#fff"><path d="m83.903 126.96 10.686-1.722-7.8267 63.913z" fill-opacity=".13731"/><path d="m83.903 126.96 2.859 62.191-11.179-4.489z" fill-opacity=".27164"/><path d="m94.589 125.24-13.562-55.459 2.8761 57.181z" fill-opacity=".19702"/></g><path d="m94.589 125.24 16.284-2.6341-5.2684-50.766z" fill-opacity=".11642"/><path d="m92.016 59.46 13.588 12.379 0.28784-21.138z" fill-opacity=".11642"/><g fill="#fff"><path d="m92.016 59.46-4.2692-24.413-6.7198 34.734z" fill-opacity=".19702"/><path d="m92.016 59.46 2.5729 65.78-13.562-55.459z" fill-opacity=".062222"/><path d="m87.747 35.047-7.8269 20.279 1.1071 14.454z" fill-opacity=".28"/><path d="m102.33 38.961 3.5579 11.741 20.635-15.299z" fill-opacity=".19111"/><path d="m102.33 38.961 21.233-5.4438 22.637-6.4369-19.677 8.3228z" fill-opacity=".24444"/></g><g><path d="m105.89 50.702 20.635-15.299 2.1348 9.9622z" fill-opacity=".044444"/><path d="m126.53 35.403 6.4578 9.2148-4.323 0.74743z" fill-opacity=".044444"/><g fill-opacity=".066667"><path d="m132.98 44.618-4.323 0.74743 21.063 21.344z"/><path d="m132.98 44.618 35.87 3.1022-0.96316 3.9135z"/><path d="m79.92 55.327-34.813-11.815 35.92 26.269z"/></g></g><g fill="#fff"><path d="m45.107 43.512 13.016 0.40174 21.797 11.413z" fill-opacity=".066667"/><path d="m41.584 37.255 3.5221 6.2566 13.016 0.40174z" fill-opacity=".14667"/><path d="m41.584 37.255-25.365 5.5031-0.30202-3.2019z" fill-opacity=".17333"/><path d="m40.291 42.113-7.9375 24.953 3.6874 3.1587z" fill-opacity=".16"/></g><path d="m58.123 43.913-22.06-27.197 26.078 26.956z" fill-opacity=".035556"/><path d="m102.33 38.961-5.7356-23.952 9.2935 1.8935z" fill-opacity=".057778"/><path d="m96.598 15.009-4.5825 44.452-4.2692-24.413 2.4908-4.9811z" fill="#fff" fill-opacity=".12"/><path d="m71.973 33.913 15.773 1.1346-16.165 1.9633z" fill-opacity=".12"/><path d="m70.681-2.5465 25.917 17.555 7.5932-5.0316z" fill="#fff" fill-opacity=".17778"/><path d="m105.89 16.902 20.945-12.128 1.1135 4.3015z" fill-opacity=".10667"/><path d="m127.95 9.0753 21.703 7.1153-3.2019 1.4232z" fill-opacity=".10667"/><path d="m127.95 9.0753 4.625-2.8463 17.078 9.9617z" fill="#fff" fill-opacity=".071111"/><path d="m126.84 4.7738 5.7386 1.4552 15.68-8.2801z" fill="#fff" fill-opacity=".12889"/></g><g><g transform="translate(-42.857 20.086)"><path d="m79.334 108.05-2.5994 30.544 12.022-30.544z" fill="#3a0061"/><path d="m95.272 179.04-7.6805-51.481" fill="none" stroke="#0087ca" stroke-linecap="round" stroke-width=".95737"/><path d="m87.706 128.45-8.3716-20.402 9.423 5e-5z" fill="#7900b5"/><path d="m92.873 106.97 6.1737 29.894 5.9571-29.569z" fill="#3a0061"/><path d="m100.4 177.81-0.71557-52.831" fill="none" stroke="#0087ca" stroke-linecap="round" stroke-width=".95737"/><g><path d="m99.805 125.92-7.0402-19.063 12.456 0.10837z" fill="#7900b5"/><path d="m107.28 108.59 11.156 30.977-0.86649-30.76z" fill="#3a0061"/><path d="m109.88 128.2-2.8161-19.604 10.29 7e-5z" fill="#7900b5"/></g><g fill="none" stroke="#0087ca" stroke-linecap="round" stroke-width=".95737"><path d="m105.61 178.19 4.8776-50.651"/><path d="m108.6 180.57 11.573-47.811"/><path d="m106.3 183.25 6.5711-45.63"/><path d="m102.32 184.01 1.4398-45.921"/><path d="m97.722 183.63-5.7527-47.426"/><path d="m94.429 182.41-14.794-50.905"/></g><g><path d="m92.006 137.51-8.4482-24.911 13.864 0.21664z" fill="#690078"/><path d="m83.342 112.49-1.5163 35.093 15.597-34.876z" fill="#d900f7"/><path d="m125.91 111.09 20.471 31.843-16.03-31.735z" fill="#3a0061"/><path d="m119.95 133.61 6.0654-22.529 4.3324 0.10837z" fill="#7900b5"/><path d="m112.59 139.35 3.5483-25.423 11.254 0.30129z" fill="#690078"/><path d="m103.7 140.11-5.1989-24.911 13.864 0.21663z" fill="#690078"/><path d="m115.84 113.76 17.755 36.532-6.3842-36.485z" fill="#d900f7"/><path d="m98.505 114.98 11.914 35.093 2.1662-34.876z" fill="#d900f7"/><path d="m80.309 133.83-13.322-24.153 13.214 0.10837z" fill="#690078"/><path d="m66.228 109.08-8.8706 33.07 22.951-32.853z" fill="#d900f7"/></g></g></g><g transform="translate(7.8844 -77.404)" fill="#d500c3"><g transform="translate(-159.35 79.596)" filter="url(#filter32801)"><path transform="matrix(.92138 0 0 .92138 46.533 -6.1111)" d="m139.23 87.051h-6.512l3.256-5.6395z"/><path transform="matrix(.92138 0 0 -.92138 42.924 148.76)" d="m139.23 87.051h-6.512l3.256-5.6395z"/><path transform="matrix(.92138 0 0 -.92138 46.533 155.01)" d="m139.23 87.051h-6.512l3.256-5.6395z"/><path transform="matrix(.92138 0 0 .92138 42.924 .13958)" d="m139.23 87.051h-6.512l3.256-5.6395z"/><path transform="matrix(.92138 0 0 -.92138 50.142 148.76)" d="m139.23 87.051h-6.512l3.256-5.6395z"/><path transform="matrix(.92138 0 0 -.92138 42.924 161.26)" d="m139.23 87.051h-6.512l3.256-5.6395z"/><path transform="matrix(.92138 0 0 .92138 42.924 -12.362)" d="m139.23 87.051h-6.512l3.256-5.6395z"/><path transform="matrix(.92138 0 0 .92138 50.142 -12.362)" d="m139.23 87.051h-6.512l3.256-5.6395z"/><path transform="matrix(.92138 0 0 -.92138 46.533 142.51)" d="m139.23 87.051h-6.512l3.256-5.6395z"/><path transform="matrix(.92138 0 0 .92138 53.751 -18.613)" d="m139.23 87.051h-6.512l3.256-5.6395z"/><path transform="matrix(.92138 0 0 -.92138 57.359 136.26)" d="m139.23 87.051h-6.512l3.256-5.6395z"/><path transform="matrix(.92138 0 0 -.92138 53.751 142.51)" d="m139.23 87.051h-6.512l3.256-5.6395z"/><path transform="matrix(.92138 0 0 .92138 57.359 -12.362)" d="m139.23 87.051h-6.512l3.256-5.6395z"/><path transform="matrix(.92138 0 0 .92138 57.359 -24.863)" d="m139.23 87.051h-6.512l3.256-5.6395z"/><path transform="matrix(.92138 0 0 -.92138 53.751 130)" d="m139.23 87.051h-6.512l3.256-5.6395z"/><path transform="matrix(.92138 0 0 .92138 50.142 -24.863)" d="m139.23 87.051h-6.512l3.256-5.6395z"/><path transform="matrix(.92138 0 0 -.92138 50.142 136.26)" d="m139.23 87.051h-6.512l3.256-5.6395z"/><path transform="matrix(.92138 0 0 .92138 46.533 -18.613)" d="m139.23 87.051h-6.512l3.256-5.6395z"/></g><g transform="translate(-111.44 102.14)" filter="url(#filter32801)"><path transform="matrix(.92138 0 0 .92138 17.662 6.3903)" d="m139.23 87.051h-6.512l3.256-5.6395z"/><path transform="matrix(.92138 0 0 -.92138 17.662 167.51)" d="m139.23 87.051h-6.512l3.256-5.6395z"/><path transform="matrix(.92138 0 0 .92138 14.053 12.641)" d="m139.23 87.051h-6.512l3.256-5.6395z"/><path transform="matrix(.92138 0 0 .92138 24.88 6.3903)" d="m139.23 87.051h-6.512l3.256-5.6395z"/><path transform="matrix(.92138 0 0 -.92138 21.271 161.26)" d="m139.23 87.051h-6.512l3.256-5.6395z"/><path transform="matrix(.92138 0 0 -.92138 24.88 167.51)" d="m139.23 87.051h-6.512l3.256-5.6395z"/><path transform="matrix(.92138 0 0 .92138 21.271 12.641)" d="m139.23 87.051h-6.512l3.256-5.6395z"/><path transform="matrix(.92138 0 0 .92138 24.88 18.892)" d="m139.23 87.051h-6.512l3.256-5.6395z"/><path transform="matrix(.92138 0 0 -.92138 21.271 173.76)" d="m139.23 87.051h-6.512l3.256-5.6395z"/><path transform="matrix(.92138 0 0 -.92138 24.88 180.01)" d="m139.23 87.051h-6.512l3.256-5.6395z"/><path transform="matrix(.92138 0 0 .92138 21.271 25.142)" d="m139.23 87.051h-6.512l3.256-5.6395z"/><path transform="matrix(.92138 0 0 -.92138 21.271 186.26)" d="m139.23 87.051h-6.512l3.256-5.6395z"/><path transform="matrix(.92138 0 0 -.92138 14.053 173.76)" d="m139.23 87.051h-6.512l3.256-5.6395z"/><path transform="matrix(.92138 0 0 -.92138 10.444 155.01)" d="m139.23 87.051h-6.512l3.256-5.6395z"/><path transform="matrix(.92138 0 0 .92138 21.271 .13956)" d="m139.23 87.051h-6.512l3.256-5.6395z"/><path transform="matrix(.92138 0 0 -.92138 17.662 155.01)" d="m139.23 87.051h-6.512l3.256-5.6395z"/><path transform="matrix(.92138 0 0 .92138 24.88 -6.1112)" d="m139.23 87.051h-6.512l3.256-5.6395z"/><path transform="matrix(.92138 0 0 -.92138 28.488 148.76)" d="m139.23 87.051h-6.512l3.256-5.6395z"/><path transform="matrix(.92138 0 0 -.92138 24.88 155.01)" d="m139.23 87.051h-6.512l3.256-5.6395z"/><path transform="matrix(.92138 0 0 .92138 28.488 .13956)" d="m139.23 87.051h-6.512l3.256-5.6395z"/><path transform="matrix(.92138 0 0 .92138 28.489 -12.362)" d="m139.23 87.051h-6.512l3.256-5.6395z"/><path transform="matrix(.92138 0 0 -.92138 24.88 142.51)" d="m139.23 87.051h-6.512l3.256-5.6395z"/><path transform="matrix(.92138 0 0 .92138 28.488 12.641)" d="m139.23 87.051h-6.512l3.256-5.6395z"/><path transform="matrix(.92138 0 0 -.92138 28.488 161.26)" d="m139.23 87.051h-6.512l3.256-5.6395z"/><path transform="matrix(.92138 0 0 .92138 6.8353 -12.362)" d="m139.23 87.051h-6.512l3.256-5.6395z"/><path transform="matrix(.92138 0 0 .92138 14.053 -12.362)" d="m139.23 87.051h-6.512l3.256-5.6395z"/><path transform="matrix(.92138 0 0 -.92138 10.444 142.51)" d="m139.23 87.051h-6.512l3.256-5.6395z"/><path transform="matrix(.92138 0 0 -.92138 6.8353 148.76)" d="m139.23 87.051h-6.512l3.256-5.6395z"/><path transform="matrix(.92138 0 0 -.92138 14.053 148.76)" d="m139.23 87.051h-6.512l3.256-5.6395z"/><path transform="matrix(.92138 0 0 .92138 10.444 -6.1112)" d="m139.23 87.051h-6.512l3.256-5.6395z"/><path transform="matrix(.92138 0 0 .92138 21.271 -12.362)" d="m139.23 87.051h-6.512l3.256-5.6395z"/><path transform="matrix(.92138 0 0 -.92138 17.662 142.51)" d="m139.23 87.051h-6.512l3.256-5.6395z"/><path transform="matrix(.92138 0 0 -.92138 21.271 148.76)" d="m139.23 87.051h-6.512l3.256-5.6395z"/><path transform="matrix(.92138 0 0 .92138 17.662 -6.1112)" d="m139.23 87.051h-6.512l3.256-5.6395z"/><path transform="matrix(.92138 0 0 .92138 24.88 -18.613)" d="m139.23 87.051h-6.512l3.256-5.6395z"/><path transform="matrix(.92138 0 0 -.92138 28.489 136.26)" d="m139.23 87.051h-6.512l3.256-5.6395z"/><path transform="matrix(.92138 0 0 .92138 28.489 -24.863)" d="m139.23 87.051h-6.512l3.256-5.6395z"/><path transform="matrix(.92138 0 0 -.92138 24.88 130)" d="m139.23 87.051h-6.512l3.256-5.6395z"/><path transform="matrix(.92138 0 0 .92138 14.053 -24.863)" d="m139.23 87.051h-6.512l3.256-5.6395z"/><path transform="matrix(.92138 0 0 -.92138 14.053 136.26)" d="m139.23 87.051h-6.512l3.256-5.6395z"/><path transform="matrix(.92138 0 0 .92138 10.444 -18.613)" d="m139.23 87.051h-6.512l3.256-5.6395z"/><path transform="matrix(.92138 0 0 .92138 21.271 -24.863)" d="m139.23 87.051h-6.512l3.256-5.6395z"/><path transform="matrix(.92138 0 0 -.92138 17.662 130)" d="m139.23 87.051h-6.512l3.256-5.6395z"/><path transform="matrix(.92138 0 0 -.92138 21.271 136.26)" d="m139.23 87.051h-6.512l3.256-5.6395z"/><path transform="matrix(.92138 0 0 .92138 17.662 -18.613)" d="m139.23 87.051h-6.512l3.256-5.6395z"/></g><g transform="translate(-112.75 46.718)" filter="url(#filter32801)"><path transform="matrix(.92138 0 0 .92138 21.271 .13956)" d="m139.23 87.051h-6.512l3.256-5.6395z"/><path transform="matrix(.92138 0 0 -.92138 17.662 155.01)" d="m139.23 87.051h-6.512l3.256-5.6395z"/><path transform="matrix(.92138 0 0 .92138 24.88 -6.1112)" d="m139.23 87.051h-6.512l3.256-5.6395z"/><path transform="matrix(.92138 0 0 .92138 32.097 -6.1112)" d="m139.23 87.051h-6.512l3.256-5.6395z"/><path transform="matrix(.92138 0 0 -.92138 28.488 148.76)" d="m139.23 87.051h-6.512l3.256-5.6395z"/><path transform="matrix(.92138 0 0 -.92138 24.88 155.01)" d="m139.23 87.051h-6.512l3.256-5.6395z"/><path transform="matrix(.92138 0 0 -.92138 32.097 155.01)" d="m139.23 87.051h-6.512l3.256-5.6395z"/><path transform="matrix(.92138 0 0 .92138 28.488 .13956)" d="m139.23 87.051h-6.512l3.256-5.6395z"/><path transform="matrix(.92138 0 0 .92138 39.315 -6.1112)" d="m139.23 87.051h-6.512l3.256-5.6395z"/><path transform="matrix(.92138 0 0 -.92138 35.706 148.76)" d="m139.23 87.051h-6.512l3.256-5.6395z"/><path transform="matrix(.92138 0 0 -.92138 39.315 155.01)" d="m139.23 87.051h-6.512l3.256-5.6395z"/><path transform="matrix(.92138 0 0 .92138 35.706 .13957)" d="m139.23 87.051h-6.512l3.256-5.6395z"/><path transform="matrix(.92138 0 0 .92138 28.489 -12.362)" d="m139.23 87.051h-6.512l3.256-5.6395z"/><path transform="matrix(.92138 0 0 -.92138 24.88 142.51)" d="m139.23 87.051h-6.512l3.256-5.6395z"/><path transform="matrix(.92138 0 0 .92138 35.706 -12.362)" d="m139.23 87.051h-6.512l3.256-5.6395z"/><path transform="matrix(.92138 0 0 -.92138 32.097 142.51)" d="m139.23 87.051h-6.512l3.256-5.6395z"/><path transform="matrix(.92138 0 0 .92138 32.097 6.3903)" d="m139.23 87.051h-6.512l3.256-5.6395z"/><path transform="matrix(.92138 0 0 -.92138 28.488 161.26)" d="m139.23 87.051h-6.512l3.256-5.6395z"/><path transform="matrix(.92138 0 0 .92138 39.315 6.3903)" d="m139.23 87.051h-6.512l3.256-5.6395z"/><path transform="matrix(.92138 0 0 -.92138 35.706 161.26)" d="m139.23 87.051h-6.512l3.256-5.6395z"/><path transform="matrix(.92138 0 0 .92138 14.053 -12.362)" d="m139.23 87.051h-6.512l3.256-5.6395z"/><path transform="matrix(.92138 0 0 -.92138 14.053 148.76)" d="m139.23 87.051h-6.512l3.256-5.6395z"/><path transform="matrix(.92138 0 0 .92138 21.271 -12.362)" d="m139.23 87.051h-6.512l3.256-5.6395z"/><path transform="matrix(.92138 0 0 -.92138 17.662 142.51)" d="m139.23 87.051h-6.512l3.256-5.6395z"/><path transform="matrix(.92138 0 0 -.92138 21.271 148.76)" d="m139.23 87.051h-6.512l3.256-5.6395z"/><path transform="matrix(.92138 0 0 .92138 17.662 -6.1112)" d="m139.23 87.051h-6.512l3.256-5.6395z"/><path transform="matrix(.92138 0 0 .92138 46.533 -6.1111)" d="m139.23 87.051h-6.512l3.256-5.6395z"/><path transform="matrix(.92138 0 0 -.92138 42.924 148.76)" d="m139.23 87.051h-6.512l3.256-5.6395z"/><path transform="matrix(.92138 0 0 -.92138 46.533 155.01)" d="m139.23 87.051h-6.512l3.256-5.6395z"/><path transform="matrix(.92138 0 0 .92138 42.924 .13958)" d="m139.23 87.051h-6.512l3.256-5.6395z"/><path transform="matrix(.92138 0 0 -.92138 42.924 161.26)" d="m139.23 87.051h-6.512l3.256-5.6395z"/><path transform="matrix(.92138 0 0 .92138 42.924 -12.362)" d="m139.23 87.051h-6.512l3.256-5.6395z"/><path transform="matrix(.92138 0 0 .92138 39.315 -18.613)" d="m139.23 87.051h-6.512l3.256-5.6395z"/><path transform="matrix(.92138 0 0 -.92138 39.315 142.51)" d="m139.23 87.051h-6.512l3.256-5.6395z"/><path transform="matrix(.92138 0 0 .92138 24.88 -18.613)" d="m139.23 87.051h-6.512l3.256-5.6395z"/><path transform="matrix(.92138 0 0 .92138 32.097 -18.613)" d="m139.23 87.051h-6.512l3.256-5.6395z"/><path transform="matrix(.92138 0 0 -.92138 28.489 136.26)" d="m139.23 87.051h-6.512l3.256-5.6395z"/><path transform="matrix(.92138 0 0 -.92138 35.706 136.26)" d="m139.23 87.051h-6.512l3.256-5.6395z"/><path transform="matrix(.92138 0 0 .92138 28.489 -24.863)" d="m139.23 87.051h-6.512l3.256-5.6395z"/><path transform="matrix(.92138 0 0 -.92138 24.88 130)" d="m139.23 87.051h-6.512l3.256-5.6395z"/><path transform="matrix(.92138 0 0 .92138 35.706 -24.863)" d="m139.23 87.051h-6.512l3.256-5.6395z"/><path transform="matrix(.92138 0 0 -.92138 32.097 130)" d="m139.23 87.051h-6.512l3.256-5.6395z"/><path transform="matrix(.92138 0 0 .92138 21.271 -24.863)" d="m139.23 87.051h-6.512l3.256-5.6395z"/><path transform="matrix(.92138 0 0 -.92138 21.271 136.26)" d="m139.23 87.051h-6.512l3.256-5.6395z"/><path transform="matrix(.92138 0 0 .92138 17.662 -18.613)" d="m139.23 87.051h-6.512l3.256-5.6395z"/></g><g transform="translate(-77.457 71.262)" filter="url(#filter32801)"><path transform="matrix(.92138 0 0 .92138 17.662 6.3903)" d="m139.23 87.051h-6.512l3.256-5.6395z"/><path transform="matrix(.92138 0 0 -.92138 14.053 161.26)" d="m139.23 87.051h-6.512l3.256-5.6395z"/><path transform="matrix(.92138 0 0 .92138 24.88 6.3903)" d="m139.23 87.051h-6.512l3.256-5.6395z"/><path transform="matrix(.92138 0 0 -.92138 21.271 161.26)" d="m139.23 87.051h-6.512l3.256-5.6395z"/><path transform="matrix(.92138 0 0 -.92138 24.88 167.51)" d="m139.23 87.051h-6.512l3.256-5.6395z"/><path transform="matrix(.92138 0 0 .92138 21.271 12.641)" d="m139.23 87.051h-6.512l3.256-5.6395z"/><path transform="matrix(.92138 0 0 .92138 14.053 .13956)" d="m139.23 87.051h-6.512l3.256-5.6395z"/><path transform="matrix(.92138 0 0 .92138 21.271 .13956)" d="m139.23 87.051h-6.512l3.256-5.6395z"/><path transform="matrix(.92138 0 0 -.92138 17.662 155.01)" d="m139.23 87.051h-6.512l3.256-5.6395z"/><path transform="matrix(.92138 0 0 .92138 24.88 -6.1112)" d="m139.23 87.051h-6.512l3.256-5.6395z"/><path transform="matrix(.92138 0 0 .92138 32.097 -6.1112)" d="m139.23 87.051h-6.512l3.256-5.6395z"/><path transform="matrix(.92138 0 0 -.92138 28.488 148.76)" d="m139.23 87.051h-6.512l3.256-5.6395z"/><path transform="matrix(.92138 0 0 -.92138 24.88 155.01)" d="m139.23 87.051h-6.512l3.256-5.6395z"/><path transform="matrix(.92138 0 0 -.92138 32.097 155.01)" d="m139.23 87.051h-6.512l3.256-5.6395z"/><path transform="matrix(.92138 0 0 .92138 28.488 .13956)" d="m139.23 87.051h-6.512l3.256-5.6395z"/><path transform="matrix(.92138 0 0 -.92138 35.706 148.76)" d="m139.23 87.051h-6.512l3.256-5.6395z"/><path transform="matrix(.92138 0 0 .92138 35.706 .13957)" d="m139.23 87.051h-6.512l3.256-5.6395z"/><path transform="matrix(.92138 0 0 .92138 28.489 -12.362)" d="m139.23 87.051h-6.512l3.256-5.6395z"/><path transform="matrix(.92138 0 0 -.92138 24.88 142.51)" d="m139.23 87.051h-6.512l3.256-5.6395z"/><path transform="matrix(.92138 0 0 .92138 35.706 -12.362)" d="m139.23 87.051h-6.512l3.256-5.6395z"/><path transform="matrix(.92138 0 0 -.92138 32.097 142.51)" d="m139.23 87.051h-6.512l3.256-5.6395z"/><path transform="matrix(.92138 0 0 -.92138 32.097 167.51)" d="m139.23 87.051h-6.512l3.256-5.6395z"/><path transform="matrix(.92138 0 0 .92138 32.097 6.3903)" d="m139.23 87.051h-6.512l3.256-5.6395z"/><path transform="matrix(.92138 0 0 -.92138 28.488 161.26)" d="m139.23 87.051h-6.512l3.256-5.6395z"/><path transform="matrix(.92138 0 0 -.92138 35.706 161.26)" d="m139.23 87.051h-6.512l3.256-5.6395z"/><path transform="matrix(.92138 0 0 .92138 21.271 -12.362)" d="m139.23 87.051h-6.512l3.256-5.6395z"/><path transform="matrix(.92138 0 0 -.92138 17.662 142.51)" d="m139.23 87.051h-6.512l3.256-5.6395z"/><path transform="matrix(.92138 0 0 -.92138 21.271 148.76)" d="m139.23 87.051h-6.512l3.256-5.6395z"/><path transform="matrix(.92138 0 0 .92138 17.662 -6.1112)" d="m139.23 87.051h-6.512l3.256-5.6395z"/><path transform="matrix(.92138 0 0 .92138 24.88 -18.613)" d="m139.23 87.051h-6.512l3.256-5.6395z"/><path transform="matrix(.92138 0 0 .92138 32.097 -18.613)" d="m139.23 87.051h-6.512l3.256-5.6395z"/><path transform="matrix(.92138 0 0 -.92138 28.489 136.26)" d="m139.23 87.051h-6.512l3.256-5.6395z"/><path transform="matrix(.92138 0 0 -.92138 35.706 136.26)" d="m139.23 87.051h-6.512l3.256-5.6395z"/><path transform="matrix(.92138 0 0 .92138 28.489 -24.863)" d="m139.23 87.051h-6.512l3.256-5.6395z"/><path transform="matrix(.92138 0 0 -.92138 24.88 130)" d="m139.23 87.051h-6.512l3.256-5.6395z"/><path transform="matrix(.92138 0 0 .92138 35.706 -24.863)" d="m139.23 87.051h-6.512l3.256-5.6395z"/><path transform="matrix(.92138 0 0 -.92138 32.097 130)" d="m139.23 87.051h-6.512l3.256-5.6395z"/><path transform="matrix(.92138 0 0 .92138 21.271 -24.863)" d="m139.23 87.051h-6.512l3.256-5.6395z"/><path transform="matrix(.92138 0 0 -.92138 21.271 136.26)" d="m139.23 87.051h-6.512l3.256-5.6395z"/><path transform="matrix(.92138 0 0 .92138 17.662 -18.613)" d="m139.23 87.051h-6.512l3.256-5.6395z"/></g><g transform="translate(-83.886 34.557)" filter="url(#filter32801)"><path transform="matrix(.92138 0 0 .92138 24.88 -6.1112)" d="m139.23 87.051h-6.512l3.256-5.6395z"/><path transform="matrix(.92138 0 0 .92138 32.097 -6.1112)" d="m139.23 87.051h-6.512l3.256-5.6395z"/><path transform="matrix(.92138 0 0 -.92138 28.488 148.76)" d="m139.23 87.051h-6.512l3.256-5.6395z"/><path transform="matrix(.92138 0 0 -.92138 24.88 155.01)" d="m139.23 87.051h-6.512l3.256-5.6395z"/><path transform="matrix(.92138 0 0 -.92138 32.097 155.01)" d="m139.23 87.051h-6.512l3.256-5.6395z"/><path transform="matrix(.92138 0 0 .92138 39.315 -6.1112)" d="m139.23 87.051h-6.512l3.256-5.6395z"/><path transform="matrix(.92138 0 0 -.92138 35.706 148.76)" d="m139.23 87.051h-6.512l3.256-5.6395z"/><path transform="matrix(.92138 0 0 -.92138 39.315 155.01)" d="m139.23 87.051h-6.512l3.256-5.6395z"/><path transform="matrix(.92138 0 0 .92138 35.706 .13957)" d="m139.23 87.051h-6.512l3.256-5.6395z"/><path transform="matrix(.92138 0 0 .92138 28.489 -12.362)" d="m139.23 87.051h-6.512l3.256-5.6395z"/><path transform="matrix(.92138 0 0 -.92138 24.88 142.51)" d="m139.23 87.051h-6.512l3.256-5.6395z"/><path transform="matrix(.92138 0 0 .92138 35.706 -12.362)" d="m139.23 87.051h-6.512l3.256-5.6395z"/><path transform="matrix(.92138 0 0 -.92138 32.097 142.51)" d="m139.23 87.051h-6.512l3.256-5.6395z"/><path transform="matrix(.92138 0 0 .92138 21.271 -12.362)" d="m139.23 87.051h-6.512l3.256-5.6395z"/><path transform="matrix(.92138 0 0 -.92138 17.662 142.51)" d="m139.23 87.051h-6.512l3.256-5.6395z"/><path transform="matrix(.92138 0 0 -.92138 21.271 148.76)" d="m139.23 87.051h-6.512l3.256-5.6395z"/><path transform="matrix(.92138 0 0 .92138 46.533 -6.1111)" d="m139.23 87.051h-6.512l3.256-5.6395z"/><path transform="matrix(.92138 0 0 -.92138 42.924 148.76)" d="m139.23 87.051h-6.512l3.256-5.6395z"/><path transform="matrix(.92138 0 0 -.92138 46.533 155.01)" d="m139.23 87.051h-6.512l3.256-5.6395z"/><path transform="matrix(.92138 0 0 .92138 42.924 -12.362)" d="m139.23 87.051h-6.512l3.256-5.6395z"/><path transform="matrix(.92138 0 0 -.92138 46.533 142.51)" d="m139.23 87.051h-6.512l3.256-5.6395z"/><path transform="matrix(.92138 0 0 .92138 42.924 -24.863)" d="m139.23 87.051h-6.512l3.256-5.6395z"/><path transform="matrix(.92138 0 0 -.92138 42.924 136.26)" d="m139.23 87.051h-6.512l3.256-5.6395z"/><path transform="matrix(.92138 0 0 .92138 46.533 -18.613)" d="m139.23 87.051h-6.512l3.256-5.6395z"/><path transform="matrix(.92138 0 0 .92138 39.315 -18.613)" d="m139.23 87.051h-6.512l3.256-5.6395z"/><path transform="matrix(.92138 0 0 -.92138 39.315 142.51)" d="m139.23 87.051h-6.512l3.256-5.6395z"/><path transform="matrix(.92138 0 0 .92138 24.88 -18.613)" d="m139.23 87.051h-6.512l3.256-5.6395z"/><path transform="matrix(.92138 0 0 .92138 32.097 -18.613)" d="m139.23 87.051h-6.512l3.256-5.6395z"/><path transform="matrix(.92138 0 0 -.92138 28.489 136.26)" d="m139.23 87.051h-6.512l3.256-5.6395z"/><path transform="matrix(.92138 0 0 -.92138 35.706 136.26)" d="m139.23 87.051h-6.512l3.256-5.6395z"/><path transform="matrix(.92138 0 0 .92138 28.489 -24.863)" d="m139.23 87.051h-6.512l3.256-5.6395z"/><path transform="matrix(.92138 0 0 -.92138 24.88 130)" d="m139.23 87.051h-6.512l3.256-5.6395z"/><path transform="matrix(.92138 0 0 .92138 35.706 -24.863)" d="m139.23 87.051h-6.512l3.256-5.6395z"/><path transform="matrix(.92138 0 0 -.92138 32.097 130)" d="m139.23 87.051h-6.512l3.256-5.6395z"/><path transform="matrix(.92138 0 0 .92138 21.271 -24.863)" d="m139.23 87.051h-6.512l3.256-5.6395z"/><path transform="matrix(.92138 0 0 -.92138 21.271 136.26)" d="m139.23 87.051h-6.512l3.256-5.6395z"/><path transform="matrix(.92138 0 0 .92138 17.662 -18.613)" d="m139.23 87.051h-6.512l3.256-5.6395z"/><path transform="matrix(.92138 0 0 -.92138 39.315 130)" d="m139.23 87.051h-6.512l3.256-5.6395z"/></g><g transform="translate(-14.95 35.972)" filter="url(#filter32801)"><path transform="matrix(.92138 0 0 .92138 17.662 6.3903)" d="m139.23 87.051h-6.512l3.256-5.6395z"/><path transform="matrix(.92138 0 0 -.92138 14.053 161.26)" d="m139.23 87.051h-6.512l3.256-5.6395z"/><path transform="matrix(.92138 0 0 -.92138 17.662 167.51)" d="m139.23 87.051h-6.512l3.256-5.6395z"/><path transform="matrix(.92138 0 0 .92138 14.053 12.641)" d="m139.23 87.051h-6.512l3.256-5.6395z"/><path transform="matrix(.92138 0 0 -.92138 21.271 161.26)" d="m139.23 87.051h-6.512l3.256-5.6395z"/><path transform="matrix(.92138 0 0 .92138 21.271 12.641)" d="m139.23 87.051h-6.512l3.256-5.6395z"/><path transform="matrix(.92138 0 0 -.92138 21.271 173.76)" d="m139.23 87.051h-6.512l3.256-5.6395z"/><path transform="matrix(.92138 0 0 -.92138 14.053 173.76)" d="m139.23 87.051h-6.512l3.256-5.6395z"/><path transform="matrix(.92138 0 0 .92138 14.053 .13956)" d="m139.23 87.051h-6.512l3.256-5.6395z"/><path transform="matrix(.92138 0 0 .92138 21.271 .13956)" d="m139.23 87.051h-6.512l3.256-5.6395z"/><path transform="matrix(.92138 0 0 -.92138 17.662 155.01)" d="m139.23 87.051h-6.512l3.256-5.6395z"/><path transform="matrix(.92138 0 0 .92138 24.88 -6.1112)" d="m139.23 87.051h-6.512l3.256-5.6395z"/><path transform="matrix(.92138 0 0 .92138 32.097 -6.1112)" d="m139.23 87.051h-6.512l3.256-5.6395z"/><path transform="matrix(.92138 0 0 -.92138 28.488 148.76)" d="m139.23 87.051h-6.512l3.256-5.6395z"/><path transform="matrix(.92138 0 0 -.92138 24.88 155.01)" d="m139.23 87.051h-6.512l3.256-5.6395z"/><path transform="matrix(.92138 0 0 -.92138 32.097 155.01)" d="m139.23 87.051h-6.512l3.256-5.6395z"/><path transform="matrix(.92138 0 0 .92138 28.488 .13956)" d="m139.23 87.051h-6.512l3.256-5.6395z"/><path transform="matrix(.92138 0 0 .92138 39.315 -6.1112)" d="m139.23 87.051h-6.512l3.256-5.6395z"/><path transform="matrix(.92138 0 0 -.92138 35.706 148.76)" d="m139.23 87.051h-6.512l3.256-5.6395z"/><path transform="matrix(.92138 0 0 .92138 28.489 -12.362)" d="m139.23 87.051h-6.512l3.256-5.6395z"/><path transform="matrix(.92138 0 0 -.92138 24.88 142.51)" d="m139.23 87.051h-6.512l3.256-5.6395z"/><path transform="matrix(.92138 0 0 .92138 35.706 -12.362)" d="m139.23 87.051h-6.512l3.256-5.6395z"/><path transform="matrix(.92138 0 0 -.92138 32.097 142.51)" d="m139.23 87.051h-6.512l3.256-5.6395z"/><path transform="matrix(.92138 0 0 -.92138 28.488 161.26)" d="m139.23 87.051h-6.512l3.256-5.6395z"/><path transform="matrix(.92138 0 0 .92138 14.053 -12.362)" d="m139.23 87.051h-6.512l3.256-5.6395z"/><path transform="matrix(.92138 0 0 -.92138 14.053 148.76)" d="m139.23 87.051h-6.512l3.256-5.6395z"/><path transform="matrix(.92138 0 0 .92138 21.271 -12.362)" d="m139.23 87.051h-6.512l3.256-5.6395z"/><path transform="matrix(.92138 0 0 -.92138 17.662 142.51)" d="m139.23 87.051h-6.512l3.256-5.6395z"/><path transform="matrix(.92138 0 0 -.92138 21.271 148.76)" d="m139.23 87.051h-6.512l3.256-5.6395z"/><path transform="matrix(.92138 0 0 .92138 17.662 -6.1112)" d="m139.23 87.051h-6.512l3.256-5.6395z"/><path transform="matrix(.92138 0 0 .92138 46.533 -6.1111)" d="m139.23 87.051h-6.512l3.256-5.6395z"/><path transform="matrix(.92138 0 0 -.92138 42.924 148.76)" d="m139.23 87.051h-6.512l3.256-5.6395z"/><path transform="matrix(.92138 0 0 -.92138 46.533 155.01)" d="m139.23 87.051h-6.512l3.256-5.6395z"/><path transform="matrix(.92138 0 0 .92138 53.751 -6.1111)" d="m139.23 87.051h-6.512l3.256-5.6395z"/><path transform="matrix(.92138 0 0 -.92138 50.142 148.76)" d="m139.23 87.051h-6.512l3.256-5.6395z"/><path transform="matrix(.92138 0 0 -.92138 53.751 155.01)" d="m139.23 87.051h-6.512l3.256-5.6395z"/><path transform="matrix(.92138 0 0 .92138 50.142 .13959)" d="m139.23 87.051h-6.512l3.256-5.6395z"/><path transform="matrix(.92138 0 0 .92138 53.75 6.3903)" d="m139.23 87.051h-6.512l3.256-5.6395z"/><path transform="matrix(.92138 0 0 -.92138 50.142 161.26)" d="m139.23 87.051h-6.512l3.256-5.6395z"/><path transform="matrix(.92138 0 0 -.92138 53.75 167.51)" d="m139.23 87.051h-6.512l3.256-5.6395z"/><path transform="matrix(.92138 0 0 .92138 42.924 -12.362)" d="m139.23 87.051h-6.512l3.256-5.6395z"/><path transform="matrix(.92138 0 0 .92138 50.142 -12.362)" d="m139.23 87.051h-6.512l3.256-5.6395z"/><path transform="matrix(.92138 0 0 -.92138 46.533 142.51)" d="m139.23 87.051h-6.512l3.256-5.6395z"/><path transform="matrix(.92138 0 0 -.92138 53.751 142.51)" d="m139.23 87.051h-6.512l3.256-5.6395z"/><path transform="matrix(.92138 0 0 .92138 57.359 -12.362)" d="m139.23 87.051h-6.512l3.256-5.6395z"/><path transform="matrix(.92138 0 0 .92138 57.359 .13957)" d="m139.23 87.051h-6.512l3.256-5.6395z"/><path transform="matrix(.92138 0 0 -.92138 57.359 148.76)" d="m139.23 87.051h-6.512l3.256-5.6395z"/><path transform="matrix(.92138 0 0 .92138 42.924 -24.863)" d="m139.23 87.051h-6.512l3.256-5.6395z"/><path transform="matrix(.92138 0 0 -.92138 42.924 136.26)" d="m139.23 87.051h-6.512l3.256-5.6395z"/><path transform="matrix(.92138 0 0 .92138 46.533 -18.613)" d="m139.23 87.051h-6.512l3.256-5.6395z"/><path transform="matrix(.92138 0 0 .92138 39.315 -18.613)" d="m139.23 87.051h-6.512l3.256-5.6395z"/><path transform="matrix(.92138 0 0 -.92138 39.315 142.51)" d="m139.23 87.051h-6.512l3.256-5.6395z"/><path transform="matrix(.92138 0 0 .92138 24.88 -18.613)" d="m139.23 87.051h-6.512l3.256-5.6395z"/><path transform="matrix(.92138 0 0 .92138 32.097 -18.613)" d="m139.23 87.051h-6.512l3.256-5.6395z"/><path transform="matrix(.92138 0 0 -.92138 28.489 136.26)" d="m139.23 87.051h-6.512l3.256-5.6395z"/><path transform="matrix(.92138 0 0 -.92138 35.706 136.26)" d="m139.23 87.051h-6.512l3.256-5.6395z"/><path transform="matrix(.92138 0 0 .92138 28.489 -24.863)" d="m139.23 87.051h-6.512l3.256-5.6395z"/><path transform="matrix(.92138 0 0 .92138 35.706 -24.863)" d="m139.23 87.051h-6.512l3.256-5.6395z"/><path transform="matrix(.92138 0 0 -.92138 32.097 130)" d="m139.23 87.051h-6.512l3.256-5.6395z"/><path transform="matrix(.92138 0 0 -.92138 21.271 136.26)" d="m139.23 87.051h-6.512l3.256-5.6395z"/><path transform="matrix(.92138 0 0 .92138 17.662 -18.613)" d="m139.23 87.051h-6.512l3.256-5.6395z"/><path transform="matrix(.92138 0 0 -.92138 39.315 130)" d="m139.23 87.051h-6.512l3.256-5.6395z"/></g><g transform="translate(-3.3668 68.634)" filter="url(#filter32801)"><path transform="matrix(.92138 0 0 -.92138 24.88 142.51)" d="m139.23 87.051h-6.512l3.256-5.6395z"/><path transform="matrix(.92138 0 0 .92138 21.271 -12.362)" d="m139.23 87.051h-6.512l3.256-5.6395z"/><path transform="matrix(.92138 0 0 -.92138 21.271 148.76)" d="m139.23 87.051h-6.512l3.256-5.6395z"/><path transform="matrix(.92138 0 0 .92138 24.88 -18.613)" d="m139.23 87.051h-6.512l3.256-5.6395z"/><path transform="matrix(.92138 0 0 -.92138 28.489 136.26)" d="m139.23 87.051h-6.512l3.256-5.6395z"/><path transform="matrix(.92138 0 0 .92138 28.489 -24.863)" d="m139.23 87.051h-6.512l3.256-5.6395z"/><path transform="matrix(.92138 0 0 -.92138 24.88 130)" d="m139.23 87.051h-6.512l3.256-5.6395z"/><path transform="matrix(.92138 0 0 .92138 21.271 -24.863)" d="m139.23 87.051h-6.512l3.256-5.6395z"/><path transform="matrix(.92138 0 0 -.92138 21.271 136.26)" d="m139.23 87.051h-6.512l3.256-5.6395z"/></g><g transform="translate(3.6095 88.745)" filter="url(#filter32801)"><path transform="matrix(.92138 0 0 .92138 10.444 6.3903)" d="m139.23 87.051h-6.512l3.256-5.6395z"/><path transform="matrix(.92138 0 0 -.92138 14.053 161.26)" d="m139.23 87.051h-6.512l3.256-5.6395z"/><path transform="matrix(.92138 0 0 -.92138 10.444 167.51)" d="m139.23 87.051h-6.512l3.256-5.6395z"/><path transform="matrix(.92138 0 0 .92138 14.053 12.641)" d="m139.23 87.051h-6.512l3.256-5.6395z"/><path transform="matrix(.92138 0 0 .92138 24.88 6.3903)" d="m139.23 87.051h-6.512l3.256-5.6395z"/><path transform="matrix(.92138 0 0 -.92138 21.271 161.26)" d="m139.23 87.051h-6.512l3.256-5.6395z"/><path transform="matrix(.92138 0 0 -.92138 24.88 167.51)" d="m139.23 87.051h-6.512l3.256-5.6395z"/><path transform="matrix(.92138 0 0 -.92138 14.053 173.76)" d="m139.23 87.051h-6.512l3.256-5.6395z"/><path transform="matrix(.92138 0 0 .92138 6.8353 .13955)" d="m139.23 87.051h-6.512l3.256-5.6395z"/><path transform="matrix(.92138 0 0 .92138 14.053 .13956)" d="m139.23 87.051h-6.512l3.256-5.6395z"/><path transform="matrix(.92138 0 0 -.92138 10.444 155.01)" d="m139.23 87.051h-6.512l3.256-5.6395z"/><path transform="matrix(.92138 0 0 .92138 21.271 .13956)" d="m139.23 87.051h-6.512l3.256-5.6395z"/><path transform="matrix(.92138 0 0 -.92138 17.662 155.01)" d="m139.23 87.051h-6.512l3.256-5.6395z"/><path transform="matrix(.92138 0 0 .92138 24.88 -6.1112)" d="m139.23 87.051h-6.512l3.256-5.6395z"/><path transform="matrix(.92138 0 0 -.92138 28.488 148.76)" d="m139.23 87.051h-6.512l3.256-5.6395z"/><path transform="matrix(.92138 0 0 -.92138 24.88 155.01)" d="m139.23 87.051h-6.512l3.256-5.6395z"/><path transform="matrix(.92138 0 0 .92138 28.488 .13956)" d="m139.23 87.051h-6.512l3.256-5.6395z"/><path transform="matrix(.92138 0 0 .92138 39.315 -6.1112)" d="m139.23 87.051h-6.512l3.256-5.6395z"/><path transform="matrix(.92138 0 0 -.92138 39.315 155.01)" d="m139.23 87.051h-6.512l3.256-5.6395z"/><path transform="matrix(.92138 0 0 -.92138 24.88 142.51)" d="m139.23 87.051h-6.512l3.256-5.6395z"/><path transform="matrix(.92138 0 0 .92138 35.706 12.641)" d="m139.23 87.051h-6.512l3.256-5.6395z"/><path transform="matrix(.92138 0 0 -.92138 39.315 167.51)" d="m139.23 87.051h-6.512l3.256-5.6395z"/><path transform="matrix(.92138 0 0 -.92138 28.488 161.26)" d="m139.23 87.051h-6.512l3.256-5.6395z"/><path transform="matrix(.92138 0 0 .92138 39.315 6.3903)" d="m139.23 87.051h-6.512l3.256-5.6395z"/><path transform="matrix(.92138 0 0 .92138 3.2265 -6.1112)" d="m139.23 87.051h-6.512l3.256-5.6395z"/><path transform="matrix(.92138 0 0 .92138 6.8353 -12.362)" d="m139.23 87.051h-6.512l3.256-5.6395z"/><path transform="matrix(.92138 0 0 .92138 14.053 -12.362)" d="m139.23 87.051h-6.512l3.256-5.6395z"/><path transform="matrix(.92138 0 0 -.92138 10.444 142.51)" d="m139.23 87.051h-6.512l3.256-5.6395z"/><path transform="matrix(.92138 0 0 -.92138 6.8353 148.76)" d="m139.23 87.051h-6.512l3.256-5.6395z"/><path transform="matrix(.92138 0 0 -.92138 14.053 148.76)" d="m139.23 87.051h-6.512l3.256-5.6395z"/><path transform="matrix(.92138 0 0 .92138 10.444 -6.1112)" d="m139.23 87.051h-6.512l3.256-5.6395z"/><path transform="matrix(.92138 0 0 .92138 21.271 -12.362)" d="m139.23 87.051h-6.512l3.256-5.6395z"/><path transform="matrix(.92138 0 0 -.92138 17.662 142.51)" d="m139.23 87.051h-6.512l3.256-5.6395z"/><path transform="matrix(.92138 0 0 -.92138 21.271 148.76)" d="m139.23 87.051h-6.512l3.256-5.6395z"/><path transform="matrix(.92138 0 0 .92138 17.662 -6.1112)" d="m139.23 87.051h-6.512l3.256-5.6395z"/><path transform="matrix(.92138 0 0 .92138 46.533 -6.1111)" d="m139.23 87.051h-6.512l3.256-5.6395z"/><path transform="matrix(.92138 0 0 -.92138 42.924 148.76)" d="m139.23 87.051h-6.512l3.256-5.6395z"/><path transform="matrix(.92138 0 0 -.92138 46.533 155.01)" d="m139.23 87.051h-6.512l3.256-5.6395z"/><path transform="matrix(.92138 0 0 .92138 42.924 .13958)" d="m139.23 87.051h-6.512l3.256-5.6395z"/><path transform="matrix(.92138 0 0 .92138 53.751 -6.1111)" d="m139.23 87.051h-6.512l3.256-5.6395z"/><path transform="matrix(.92138 0 0 -.92138 50.142 148.76)" d="m139.23 87.051h-6.512l3.256-5.6395z"/><path transform="matrix(.92138 0 0 -.92138 53.751 155.01)" d="m139.23 87.051h-6.512l3.256-5.6395z"/><path transform="matrix(.92138 0 0 .92138 50.142 .13959)" d="m139.23 87.051h-6.512l3.256-5.6395z"/><path transform="matrix(.92138 0 0 .92138 53.75 6.3903)" d="m139.23 87.051h-6.512l3.256-5.6395z"/><path transform="matrix(.92138 0 0 -.92138 50.142 161.26)" d="m139.23 87.051h-6.512l3.256-5.6395z"/><path transform="matrix(.92138 0 0 -.92138 42.924 161.26)" d="m139.23 87.051h-6.512l3.256-5.6395z"/><path transform="matrix(.92138 0 0 .92138 42.924 -12.362)" d="m139.23 87.051h-6.512l3.256-5.6395z"/><path transform="matrix(.92138 0 0 .92138 50.142 -12.362)" d="m139.23 87.051h-6.512l3.256-5.6395z"/><path transform="matrix(.92138 0 0 -.92138 46.533 142.51)" d="m139.23 87.051h-6.512l3.256-5.6395z"/><path transform="matrix(.92138 0 0 .92138 42.924 -24.863)" d="m139.23 87.051h-6.512l3.256-5.6395z"/><path transform="matrix(.92138 0 0 -.92138 42.924 136.26)" d="m139.23 87.051h-6.512l3.256-5.6395z"/><path transform="matrix(.92138 0 0 .92138 46.533 -18.613)" d="m139.23 87.051h-6.512l3.256-5.6395z"/><path transform="matrix(.92138 0 0 .92138 46.533 6.3903)" d="m139.23 87.051h-6.512l3.256-5.6395z"/><path transform="matrix(.92138 0 0 -.92138 46.533 167.51)" d="m139.23 87.051h-6.512l3.256-5.6395z"/><path transform="matrix(.92138 0 0 .92138 39.315 -18.613)" d="m139.23 87.051h-6.512l3.256-5.6395z"/><path transform="matrix(.92138 0 0 -.92138 39.315 142.51)" d="m139.23 87.051h-6.512l3.256-5.6395z"/><path transform="matrix(.92138 0 0 .92138 24.88 -18.613)" d="m139.23 87.051h-6.512l3.256-5.6395z"/><path transform="matrix(.92138 0 0 .92138 32.097 -18.613)" d="m139.23 87.051h-6.512l3.256-5.6395z"/><path transform="matrix(.92138 0 0 -.92138 28.489 136.26)" d="m139.23 87.051h-6.512l3.256-5.6395z"/><path transform="matrix(.92138 0 0 -.92138 35.706 136.26)" d="m139.23 87.051h-6.512l3.256-5.6395z"/><path transform="matrix(.92138 0 0 .92138 28.489 -24.863)" d="m139.23 87.051h-6.512l3.256-5.6395z"/><path transform="matrix(.92138 0 0 -.92138 24.88 130)" d="m139.23 87.051h-6.512l3.256-5.6395z"/><path transform="matrix(.92138 0 0 .92138 35.706 -24.863)" d="m139.23 87.051h-6.512l3.256-5.6395z"/><path transform="matrix(.92138 0 0 -.92138 32.097 130)" d="m139.23 87.051h-6.512l3.256-5.6395z"/><path transform="matrix(.92138 0 0 .92138 3.2265 -18.613)" d="m139.23 87.051h-6.512l3.256-5.6395z"/><path transform="matrix(.92138 0 0 -.92138 6.8354 136.26)" d="m139.23 87.051h-6.512l3.256-5.6395z"/><path transform="matrix(.92138 0 0 -.92138 14.053 136.26)" d="m139.23 87.051h-6.512l3.256-5.6395z"/><path transform="matrix(.92138 0 0 .92138 10.444 -18.613)" d="m139.23 87.051h-6.512l3.256-5.6395z"/><path transform="matrix(.92138 0 0 .92138 21.271 -24.863)" d="m139.23 87.051h-6.512l3.256-5.6395z"/><path transform="matrix(.92138 0 0 -.92138 21.271 136.26)" d="m139.23 87.051h-6.512l3.256-5.6395z"/><path transform="matrix(.92138 0 0 .92138 17.662 -18.613)" d="m139.23 87.051h-6.512l3.256-5.6395z"/><path transform="matrix(.92138 0 0 -.92138 39.315 130)" d="m139.23 87.051h-6.512l3.256-5.6395z"/></g><g transform="translate(-48.306 79.032)" filter="url(#filter32801)"><path transform="matrix(.92138 0 0 -.92138 21.271 161.26)" d="m139.23 87.051h-6.512l3.256-5.6395z"/><path transform="matrix(.92138 0 0 .92138 21.271 .13956)" d="m139.23 87.051h-6.512l3.256-5.6395z"/><path transform="matrix(.92138 0 0 -.92138 17.662 155.01)" d="m139.23 87.051h-6.512l3.256-5.6395z"/><path transform="matrix(.92138 0 0 .92138 24.88 -6.1112)" d="m139.23 87.051h-6.512l3.256-5.6395z"/><path transform="matrix(.92138 0 0 .92138 32.097 -6.1112)" d="m139.23 87.051h-6.512l3.256-5.6395z"/><path transform="matrix(.92138 0 0 -.92138 28.488 148.76)" d="m139.23 87.051h-6.512l3.256-5.6395z"/><path transform="matrix(.92138 0 0 -.92138 24.88 155.01)" d="m139.23 87.051h-6.512l3.256-5.6395z"/><path transform="matrix(.92138 0 0 -.92138 32.097 155.01)" d="m139.23 87.051h-6.512l3.256-5.6395z"/><path transform="matrix(.92138 0 0 .92138 39.315 -6.1112)" d="m139.23 87.051h-6.512l3.256-5.6395z"/><path transform="matrix(.92138 0 0 -.92138 35.706 148.76)" d="m139.23 87.051h-6.512l3.256-5.6395z"/><path transform="matrix(.92138 0 0 -.92138 39.315 155.01)" d="m139.23 87.051h-6.512l3.256-5.6395z"/><path transform="matrix(.92138 0 0 .92138 35.706 .13957)" d="m139.23 87.051h-6.512l3.256-5.6395z"/><path transform="matrix(.92138 0 0 .92138 28.489 -12.362)" d="m139.23 87.051h-6.512l3.256-5.6395z"/><path transform="matrix(.92138 0 0 -.92138 24.88 142.51)" d="m139.23 87.051h-6.512l3.256-5.6395z"/><path transform="matrix(.92138 0 0 .92138 35.706 -12.362)" d="m139.23 87.051h-6.512l3.256-5.6395z"/><path transform="matrix(.92138 0 0 -.92138 32.097 142.51)" d="m139.23 87.051h-6.512l3.256-5.6395z"/><path transform="matrix(.92138 0 0 .92138 21.271 -12.362)" d="m139.23 87.051h-6.512l3.256-5.6395z"/><path transform="matrix(.92138 0 0 -.92138 17.662 142.51)" d="m139.23 87.051h-6.512l3.256-5.6395z"/><path transform="matrix(.92138 0 0 -.92138 21.271 148.76)" d="m139.23 87.051h-6.512l3.256-5.6395z"/><path transform="matrix(.92138 0 0 .92138 17.662 -6.1112)" d="m139.23 87.051h-6.512l3.256-5.6395z"/><path transform="matrix(.92138 0 0 -.92138 42.924 148.76)" d="m139.23 87.051h-6.512l3.256-5.6395z"/><path transform="matrix(.92138 0 0 .92138 42.924 -12.362)" d="m139.23 87.051h-6.512l3.256-5.6395z"/><path transform="matrix(.92138 0 0 .92138 39.315 -18.613)" d="m139.23 87.051h-6.512l3.256-5.6395z"/><path transform="matrix(.92138 0 0 -.92138 39.315 142.51)" d="m139.23 87.051h-6.512l3.256-5.6395z"/><path transform="matrix(.92138 0 0 .92138 24.88 -18.613)" d="m139.23 87.051h-6.512l3.256-5.6395z"/><path transform="matrix(.92138 0 0 .92138 32.097 -18.613)" d="m139.23 87.051h-6.512l3.256-5.6395z"/><path transform="matrix(.92138 0 0 -.92138 28.489 136.26)" d="m139.23 87.051h-6.512l3.256-5.6395z"/><path transform="matrix(.92138 0 0 -.92138 35.706 136.26)" d="m139.23 87.051h-6.512l3.256-5.6395z"/><path transform="matrix(.92138 0 0 .92138 28.489 -24.863)" d="m139.23 87.051h-6.512l3.256-5.6395z"/><path transform="matrix(.92138 0 0 -.92138 24.88 130)" d="m139.23 87.051h-6.512l3.256-5.6395z"/><path transform="matrix(.92138 0 0 .92138 35.706 -24.863)" d="m139.23 87.051h-6.512l3.256-5.6395z"/><path transform="matrix(.92138 0 0 -.92138 32.097 130)" d="m139.23 87.051h-6.512l3.256-5.6395z"/><path transform="matrix(.92138 0 0 .92138 21.271 -24.863)" d="m139.23 87.051h-6.512l3.256-5.6395z"/><path transform="matrix(.92138 0 0 -.92138 21.271 136.26)" d="m139.23 87.051h-6.512l3.256-5.6395z"/><path transform="matrix(.92138 0 0 .92138 17.662 -18.613)" d="m139.23 87.051h-6.512l3.256-5.6395z"/></g></g><g transform="matrix(.4313 0 0 .4313 81.681 82.975)"><path d="m143.23 280.26 2.628 1.6514 4.2453 0.10106 2.527-2.0216-3.0324-16.981-4.4474-0.20215z" fill="#0d88b6"/><path d="m143.23 280.26 1.9205-17.452 1.7702 2.7104-1.0627 16.393z" fill="#fff" fill-opacity=".19216"/><path d="m150.1 282.01-1.3632-16.09 0.85782-2.9126 3.0324 16.981z" fill-opacity=".094118"/><path transform="matrix(1 0 0 .5 -.4535 133.34)" d="m161.32 256.12-6.6206 11.467h-13.241l-6.6206-11.467 6.6206-11.467h13.241z" fill="#0d88b6"/><g fill="#fff"><path d="m141.01 267.13 6.6206-8.9773 6.6206 8.9773z" fill-opacity=".094118"/><path d="m147.63 258.15-13.241 3.2437 6.6206 5.7336z" fill-opacity=".19111"/><path d="m147.63 258.15-6.6206-2.49-6.6206 5.7336z" fill-opacity=".093333"/></g><path d="m147.63 258.15 6.6206-2.49 6.6206 5.7336z" fill-opacity=".094118"/></g><g transform="matrix(.52672 0 0 .52672 60.873 59.805)"><path d="m143.23 280.26 2.628 1.6514 4.2453 0.10106 2.527-2.0216-3.0324-16.981-4.4474-0.20215z" fill="#0d88b6"/><path d="m143.23 280.26 1.9205-17.452 1.7702 2.7104-1.0627 16.393z" fill="#fff" fill-opacity=".19216"/><path d="m150.1 282.01-1.3632-16.09 0.85782-2.9126 3.0324 16.981z" fill-opacity=".094118"/><path transform="matrix(1 0 0 .5 -.4535 133.34)" d="m161.32 256.12-6.6206 11.467h-13.241l-6.6206-11.467 6.6206-11.467h13.241z" fill="#0d88b6"/><g fill="#fff"><path d="m141.01 267.13 6.6206-8.9773 6.6206 8.9773z" fill-opacity=".094118"/><path d="m147.63 258.15-13.241 3.2437 6.6206 5.7336z" fill-opacity=".19111"/><path d="m147.63 258.15-6.6206-2.49-6.6206 5.7336z" fill-opacity=".093333"/></g><path d="m147.63 258.15 6.6206-2.49 6.6206 5.7336z" fill-opacity=".094118"/></g><g transform="matrix(.35496 0 0 .35496 76.07 107.94)"><path d="m143.23 280.26 2.628 1.6514 4.2453 0.10106 2.527-2.0216-3.0324-16.981-4.4474-0.20215z" fill="#0d88b6"/><path d="m143.23 280.26 1.9205-17.452 1.7702 2.7104-1.0627 16.393z" fill="#fff" fill-opacity=".19216"/><path d="m150.1 282.01-1.3632-16.09 0.85782-2.9126 3.0324 16.981z" fill-opacity=".094118"/><path transform="matrix(1 0 0 .5 -.4535 133.34)" d="m161.32 256.12-6.6206 11.467h-13.241l-6.6206-11.467 6.6206-11.467h13.241z" fill="#0d88b6"/><g fill="#fff"><path d="m141.01 267.13 6.6206-8.9773 6.6206 8.9773z" fill-opacity=".094118"/><path d="m147.63 258.15-13.241 3.2437 6.6206 5.7336z" fill-opacity=".19111"/><path d="m147.63 258.15-6.6206-2.49-6.6206 5.7336z" fill-opacity=".093333"/></g><path d="m147.63 258.15 6.6206-2.49 6.6206 5.7336z" fill-opacity=".094118"/></g><g transform="matrix(.3216 0 0 .3216 101.47 76.506)"><path d="m143.23 280.26 2.628 1.6514 4.2453 0.10106 2.527-2.0216-3.0324-16.981-4.4474-0.20215z" fill="#0d88b6"/><path d="m143.23 280.26 1.9205-17.452 1.7702 2.7104-1.0627 16.393z" fill="#fff" fill-opacity=".19216"/><path d="m150.1 282.01-1.3632-16.09 0.85782-2.9126 3.0324 16.981z" fill-opacity=".094118"/><path transform="matrix(1 0 0 .5 -.4535 133.34)" d="m161.32 256.12-6.6206 11.467h-13.241l-6.6206-11.467 6.6206-11.467h13.241z" fill="#0d88b6"/><g fill="#fff"><path d="m141.01 267.13 6.6206-8.9773 6.6206 8.9773z" fill-opacity=".094118"/><path d="m147.63 258.15-13.241 3.2437 6.6206 5.7336z" fill-opacity=".19111"/><path d="m147.63 258.15-6.6206-2.49-6.6206 5.7336z" fill-opacity=".093333"/></g><path d="m147.63 258.15 6.6206-2.49 6.6206 5.7336z" fill-opacity=".094118"/></g><g transform="matrix(.27819 0 0 .27819 111.55 92.208)"><path d="m143.23 280.26 2.628 1.6514 4.2453 0.10106 2.527-2.0216-3.0324-16.981-4.4474-0.20215z" fill="#0d88b6"/><path d="m143.23 280.26 1.9205-17.452 1.7702 2.7104-1.0627 16.393z" fill="#fff" fill-opacity=".19216"/><path d="m150.1 282.01-1.3632-16.09 0.85782-2.9126 3.0324 16.981z" fill-opacity=".094118"/><path transform="matrix(1 0 0 .5 -.4535 133.34)" d="m161.32 256.12-6.6206 11.467h-13.241l-6.6206-11.467 6.6206-11.467h13.241z" fill="#0d88b6"/><g fill="#fff"><path d="m141.01 267.13 6.6206-8.9773 6.6206 8.9773z" fill-opacity=".094118"/><path d="m147.63 258.15-13.241 3.2437 6.6206 5.7336z" fill-opacity=".19111"/><path d="m147.63 258.15-6.6206-2.49-6.6206 5.7336z" fill-opacity=".093333"/></g><path d="m147.63 258.15 6.6206-2.49 6.6206 5.7336z" fill-opacity=".094118"/></g><g transform="matrix(.34331 0 0 .34331 94.54 73.302)"><path d="m143.23 280.26 2.628 1.6514 4.2453 0.10106 2.527-2.0216-3.0324-16.981-4.4474-0.20215z" fill="#0d88b6"/><path d="m143.23 280.26 1.9205-17.452 1.7702 2.7104-1.0627 16.393z" fill="#fff" fill-opacity=".19216"/><path d="m150.1 282.01-1.3632-16.09 0.85782-2.9126 3.0324 16.981z" fill-opacity=".094118"/><path transform="matrix(1 0 0 .5 -.4535 133.34)" d="m161.32 256.12-6.6206 11.467h-13.241l-6.6206-11.467 6.6206-11.467h13.241z" fill="#0d88b6"/><g fill="#fff"><path d="m141.01 267.13 6.6206-8.9773 6.6206 8.9773z" fill-opacity=".094118"/><path d="m147.63 258.15-13.241 3.2437 6.6206 5.7336z" fill-opacity=".19111"/><path d="m147.63 258.15-6.6206-2.49-6.6206 5.7336z" fill-opacity=".093333"/></g><path d="m147.63 258.15 6.6206-2.49 6.6206 5.7336z" fill-opacity=".094118"/></g><g transform="matrix(.35878 0 0 .35878 -21.882 89.022)"><path d="m143.23 280.26 2.628 1.6514 4.2453 0.10106 2.527-2.0216-3.0324-16.981-4.4474-0.20215z" fill="#0d88b6"/><path d="m143.23 280.26 1.9205-17.452 1.7702 2.7104-1.0627 16.393z" fill="#fff" fill-opacity=".19216"/><path d="m150.1 282.01-1.3632-16.09 0.85782-2.9126 3.0324 16.981z" fill-opacity=".094118"/><path transform="matrix(1 0 0 .5 -.4535 133.34)" d="m161.32 256.12-6.6206 11.467h-13.241l-6.6206-11.467 6.6206-11.467h13.241z" fill="#0d88b6"/><g fill="#fff"><path d="m141.01 267.13 6.6206-8.9773 6.6206 8.9773z" fill-opacity=".094118"/><path d="m147.63 258.15-13.241 3.2437 6.6206 5.7336z" fill-opacity=".19111"/><path d="m147.63 258.15-6.6206-2.49-6.6206 5.7336z" fill-opacity=".093333"/></g><path d="m147.63 258.15 6.6206-2.49 6.6206 5.7336z" fill-opacity=".094118"/></g><g transform="matrix(.26718 0 0 .26718 -13.211 120.11)"><path d="m143.23 280.26 2.628 1.6514 4.2453 0.10106 2.527-2.0216-3.0324-16.981-4.4474-0.20215z" fill="#0d88b6"/><path d="m143.23 280.26 1.9205-17.452 1.7702 2.7104-1.0627 16.393z" fill="#fff" fill-opacity=".19216"/><path d="m150.1 282.01-1.3632-16.09 0.85782-2.9126 3.0324 16.981z" fill-opacity=".094118"/><path transform="matrix(1 0 0 .5 -.4535 133.34)" d="m161.32 256.12-6.6206 11.467h-13.241l-6.6206-11.467 6.6206-11.467h13.241z" fill="#0d88b6"/><g fill="#fff"><path d="m141.01 267.13 6.6206-8.9773 6.6206 8.9773z" fill-opacity=".094118"/><path d="m147.63 258.15-13.241 3.2437 6.6206 5.7336z" fill-opacity=".19111"/><path d="m147.63 258.15-6.6206-2.49-6.6206 5.7336z" fill-opacity=".093333"/></g><path d="m147.63 258.15 6.6206-2.49 6.6206 5.7336z" fill-opacity=".094118"/></g><g transform="matrix(.27819 0 0 .27819 66.73 132.16)"><path d="m143.23 280.26 2.628 1.6514 4.2453 0.10106 2.527-2.0216-3.0324-16.981-4.4474-0.20215z" fill="#0d88b6"/><path d="m143.23 280.26 1.9205-17.452 1.7702 2.7104-1.0627 16.393z" fill="#fff" fill-opacity=".19216"/><path d="m150.1 282.01-1.3632-16.09 0.85782-2.9126 3.0324 16.981z" fill-opacity=".094118"/><path transform="matrix(1 0 0 .5 -.4535 133.34)" d="m161.32 256.12-6.6206 11.467h-13.241l-6.6206-11.467 6.6206-11.467h13.241z" fill="#0d88b6"/><g fill="#fff"><path d="m141.01 267.13 6.6206-8.9773 6.6206 8.9773z" fill-opacity=".094118"/><path d="m147.63 258.15-13.241 3.2437 6.6206 5.7336z" fill-opacity=".19111"/><path d="m147.63 258.15-6.6206-2.49-6.6206 5.7336z" fill-opacity=".093333"/></g><path d="m147.63 258.15 6.6206-2.49 6.6206 5.7336z" fill-opacity=".094118"/></g><g transform="matrix(.81706 0 0 .81706 51.387 -57.9)"><path d="m156.31 260.02 7.0842-6.5136 0.78524 2.7796z" fill="#cf3df3"/><path d="m149.93 239.95-0.75586 1.293 5.0254 19.094 1.2203 24.31 1.2807 0.34852 1.2276-0.36493-1.6232-24.61-5.082-19.316z" color="#000000" fill="#1395e6" stroke-linecap="round"/><g><circle cx="149.93" cy="239.95" r="1.8" fill="#af0088"/><path d="m163.39 253.5 11.789 4.9528-11.004-2.1732z" fill="#890aa5"/><path d="m138.79 262.47 5.6292-7.0887 0.67804 2.5295z" fill="#cf3df3"/><path d="m144.42 255.38 9.7878 4.9528-9.1098-2.4233z" fill="#890aa5"/><path d="m148.16 239.95 0.51842-1.2516 1.2516-0.51842 1.2516 0.51842 0.51842 1.2516-0.51842 1.2516-1.2516 0.51842-1.2516-0.51842z" fill="#890aa5"/></g><g stroke-linecap="round" stroke-linejoin="round" stroke-width="1.2646"><path d="m159.23 242.63-7.528-2.6871 7.528-2.6871z" fill="#cc009e"/><path d="m166.76 239.95-7.528 2.6871v-5.3742z" fill="#af0088"/></g><g transform="rotate(225 159.23 243.8)" stroke-linecap="round" stroke-linejoin="round" stroke-width="1.2646"><path d="m159.23 242.63-7.528-2.6871 7.528-2.6871z" fill="#cc009e"/><path d="m166.76 239.95-7.528 2.6871v-5.3742z" fill="#af0088"/></g><g transform="rotate(180 149.93 239.95)" stroke-linecap="round" stroke-linejoin="round" stroke-width="1.2646"><path d="m159.23 242.63-7.528-2.6871 7.528-2.6871z" fill="#cc009e"/><path d="m166.76 239.95-7.528 2.6871v-5.3742z" fill="#af0088"/></g><g transform="rotate(-90 149.92 239.93)" stroke-linecap="round" stroke-linejoin="round" stroke-width="1.2646"><path d="m159.23 242.63-7.528-2.6871 7.528-2.6871z" fill="#cc009e"/><path d="m166.76 239.95-7.528 2.6871v-5.3742z" fill="#af0088"/></g><g transform="rotate(-45 149.93 239.95)" stroke-linecap="round" stroke-linejoin="round" stroke-width="1.2646"><path d="m159.23 242.63-7.528-2.6871 7.528-2.6871z" fill="#cc009e"/><path d="m166.76 239.95-7.528 2.6871v-5.3742z" fill="#af0088"/></g><g transform="rotate(135 149.93 239.95)" stroke-linecap="round" stroke-linejoin="round" stroke-width="1.2646"><path d="m159.23 242.63-7.528-2.6871 7.528-2.6871z" fill="#cc009e"/><path d="m166.76 239.95-7.528 2.6871v-5.3742z" fill="#af0088"/></g><g transform="rotate(90 149.92 239.96)" stroke-linecap="round" stroke-linejoin="round" stroke-width="1.2646"><path d="m159.23 242.63-7.528-2.6871 7.528-2.6871z" fill="#cc009e"/><path d="m166.76 239.95-7.528 2.6871v-5.3742z" fill="#af0088"/></g><g transform="rotate(225 149.93 239.95)" stroke-linecap="round" stroke-linejoin="round" stroke-width="1.2646"><path d="m159.23 242.63-7.528-2.6871 7.528-2.6871z" fill="#cc009e"/><path d="m166.76 239.95-7.528 2.6871v-5.3742z" fill="#af0088"/></g></g></svg>
